<svg width="104" height="150" viewBox="0 0 104 150" fill="none" xmlns="http://www.w3.org/2000/svg">
<g clip-path="url(#clip0_432_717)">
<path d="M16.6935 59.721L28.381 48.0268C28.9293 47.4785 29.2373 46.7349 29.2373 45.9595C29.2373 45.184 28.9293 44.4404 28.381 43.8921C27.8327 43.3438 27.089 43.0357 26.3136 43.0357C25.5382 43.0357 24.7945 43.3438 24.2462 43.8921L17.5424 50.5959V32.5092C17.5424 31.7337 17.2343 30.9899 16.6859 30.4415C16.1375 29.8932 15.3938 29.5851 14.6183 29.5851C13.8427 29.5851 13.099 29.8932 12.5506 30.4415C12.0022 30.9899 11.6941 31.7337 11.6941 32.5092V50.5959L4.9903 43.8921C4.442 43.3438 3.69834 43.0357 2.92292 43.0357C2.14751 43.0357 1.40385 43.3438 0.85555 43.8921C0.307248 44.4404 -0.000785276 45.184 -0.000785287 45.9595C-0.000785299 46.7349 0.307248 47.4785 0.85555 48.0268L12.5498 59.721C12.8214 59.994 13.1442 60.2105 13.4998 60.3583C13.8553 60.5061 14.2366 60.5822 14.6216 60.5822C15.0067 60.5822 15.3879 60.5061 15.7435 60.3583C16.099 60.2105 16.4219 59.994 16.6935 59.721V59.721Z" fill="black"/>
<path d="M92.3441 35.3044V31.6087C92.3435 27.3267 90.9909 23.1543 88.4791 19.6864C85.9673 16.2186 82.4246 13.6324 78.3563 12.2968V12.2968V8.5607C78.3563 7.73026 78.1926 6.90796 77.8747 6.14079C77.5568 5.37362 77.0908 4.67662 76.5034 4.08961C75.9159 3.50261 75.2186 3.03712 74.4512 2.71973C73.6838 2.40234 72.8614 2.23928 72.031 2.23987V2.23987C70.3546 2.23987 68.7468 2.90581 67.5615 4.0912C66.3761 5.27659 65.7101 6.88431 65.7101 8.5607V12.3684C61.6377 13.7007 58.0903 16.2857 55.5746 19.7543C53.059 23.2229 51.7036 27.3978 51.7021 31.6826V35.3783" stroke="#231F20" stroke-width="2" stroke-linecap="round" stroke-linejoin="round"/>
<path d="M51.7025 36.6349H48.3427C46.9261 36.5528 45.5348 37.0358 44.4737 37.978C43.4127 38.9202 42.7686 40.2447 42.6826 41.6611V41.6611C42.7777 43.0703 43.4251 44.385 44.4841 45.3194C45.5431 46.2539 46.9282 46.7326 48.3382 46.6515H95.6325C96.3367 46.7017 97.0439 46.6123 97.7135 46.3884C98.3831 46.1646 99.0019 45.8106 99.5343 45.3469C100.067 44.8832 100.502 44.3189 100.816 43.6863C101.13 43.0538 101.315 42.3656 101.362 41.6611V41.6611C101.32 40.9535 101.137 40.2614 100.826 39.6247C100.514 38.9881 100.079 38.4196 99.5463 37.9521C99.0135 37.4847 98.3932 37.1276 97.7214 36.9015C97.0495 36.6754 96.3396 36.5847 95.6325 36.6349H51.7025Z" fill="#16999F" stroke="#231F20" stroke-width="2" stroke-linecap="round" stroke-linejoin="round"/>
<path d="M51.7025 138.283H48.3427C46.9261 138.201 45.5348 138.684 44.4737 139.627C43.4127 140.569 42.7686 141.893 42.6826 143.31V143.31C42.7777 144.719 43.4251 146.033 44.4841 146.968C45.5431 147.902 46.9282 148.381 48.3382 148.3H95.6325C96.3367 148.35 97.0439 148.261 97.7135 148.037C98.3831 147.813 99.0019 147.459 99.5343 146.995C100.067 146.532 100.502 145.967 100.816 145.335C101.13 144.702 101.315 144.014 101.362 143.31V143.31C101.32 142.602 101.137 141.91 100.826 141.273C100.514 140.637 100.079 140.068 99.5463 139.601C99.0135 139.133 98.3932 138.776 97.7214 138.55C97.0495 138.324 96.3396 138.233 95.6325 138.283H51.7025Z" stroke="#231F20" stroke-width="1.5" stroke-linecap="round" stroke-linejoin="round" stroke-dasharray="1 3"/>
<path d="M50.9629 49.3864V52.1593" stroke="#231F20" stroke-width="1.5" stroke-linecap="round" stroke-linejoin="round"/>
<path d="M50.9629 60.9932V127.212" stroke="#231F20" stroke-width="1.5" stroke-linecap="round" stroke-linejoin="round" stroke-dasharray="2.87 4.78"/>
<path d="M50.9629 131.629V134.402" stroke="#231F20" stroke-width="1.5" stroke-linecap="round" stroke-linejoin="round"/>
<path d="M92.085 49.3864V52.1593" stroke="#231F20" stroke-width="1.5" stroke-linecap="round" stroke-linejoin="round"/>
<path d="M92.085 60.9932V127.212" stroke="#231F20" stroke-width="1.5" stroke-linecap="round" stroke-linejoin="round" stroke-dasharray="2.87 4.78"/>
<path d="M92.085 131.629V134.402" stroke="#231F20" stroke-width="1.5" stroke-linecap="round" stroke-linejoin="round"/>
</g>
<defs>
<clipPath id="clip0_432_717">
<rect width="103.602" height="150" fill="white"/>
</clipPath>
</defs>
</svg>
