<svg viewBox="0 0 176 150" fill="none" xmlns="http://www.w3.org/2000/svg">
<g clip-path="url(#clip0_432_687)">
<path d="M134.865 74.4381C134.865 74.4381 123.257 64.7771 123.058 60.5593C122.842 55.7008 127.935 53.8093 130.703 52.1517C135.278 49.8122 140.03 47.8383 144.915 46.2483" stroke="#231F20" stroke-width="1.5" stroke-linecap="round" stroke-linejoin="round"/>
<path d="M14.082 29.8321C14.082 29.8321 32.2219 25.0016 44.7252 31.772C57.2286 38.5423 74.5727 59.8626 82.0524 69.994C90.0481 80.8067 110.242 103.027 110.822 115.38C111.402 127.734 62.4507 189.618 48.7702 205.787" stroke="#231F20" stroke-width="2" stroke-linecap="round" stroke-linejoin="round"/>
<path d="M155.827 48.9508C154.283 47.8398 138.63 36.7805 132.437 34.4237C126.032 32.3007 119.251 31.5547 112.538 32.2347C108.387 32.4293 104.335 33.5591 100.683 35.5398C100.683 35.5398 98.1961 37.5127 98.3283 39.3712C98.3525 39.7969 98.4719 40.2118 98.6775 40.5853C98.8832 40.9589 99.17 41.2815 99.5169 41.5296C99.8637 41.7776 100.262 41.9448 100.682 42.0187C101.102 42.0926 101.533 42.0715 101.944 41.9568C104.747 41.4427 107.584 41.1377 110.433 41.0441C114.213 41.0441 126.566 43.7796 129.9 46.6652C134.594 50.3806 137.957 55.5181 139.484 61.3068C142.172 69.8288 127.329 77.8881 120.465 79.9119C117.264 80.8576 114.279 83.6924 114.711 85.9805C115.144 88.2686 116.684 89.2856 121.627 88.5661C126.569 87.8466 138.424 86.5602 145.589 83.5093C152.753 80.4585 167.018 74.5729 171.363 72.6152" fill="white"/>
<path d="M155.827 48.9508C154.283 47.8398 138.63 36.7805 132.437 34.4237C126.032 32.3007 119.251 31.5547 112.538 32.2347C108.387 32.4293 104.335 33.5591 100.683 35.5398C100.683 35.5398 98.1961 37.5127 98.3283 39.3712C98.3525 39.7969 98.4719 40.2118 98.6775 40.5853C98.8832 40.9589 99.17 41.2815 99.5169 41.5296C99.8637 41.7776 100.262 41.9448 100.682 42.0187C101.102 42.0926 101.533 42.0715 101.944 41.9568C104.747 41.4427 107.584 41.1377 110.433 41.0441C114.213 41.0441 126.566 43.7796 129.9 46.6652C134.594 50.3806 137.957 55.5181 139.484 61.3068C142.172 69.8288 127.329 77.8881 120.465 79.9119C117.264 80.8576 114.279 83.6924 114.711 85.9805C115.144 88.2686 116.684 89.2856 121.627 88.5661C126.569 87.8466 138.424 86.5602 145.589 83.5093C152.753 80.4585 167.018 74.5729 171.363 72.6152" stroke="#231F20" stroke-width="1.5" stroke-linecap="round" stroke-linejoin="round"/>
<path d="M114.999 84.6178L104.413 42.2847C104.363 41.9933 104.254 41.7153 104.092 41.4679C103.93 41.2206 103.719 41.0092 103.471 40.8468C103.224 40.6845 102.947 40.5747 102.655 40.5243C102.364 40.474 102.065 40.484 101.778 40.5539C101.491 40.6238 101.221 40.752 100.985 40.9306C100.75 41.1092 100.553 41.3344 100.409 41.5921C100.264 41.8498 100.173 42.1345 100.143 42.4286C100.113 42.7227 100.144 43.0199 100.233 43.3017L110.812 85.6525C110.871 85.937 110.987 86.2066 111.152 86.4452C111.318 86.6838 111.53 86.8864 111.776 87.0409C112.022 87.1954 112.297 87.2986 112.584 87.3442C112.871 87.3899 113.164 87.3772 113.446 87.3067C113.728 87.2362 113.992 87.1095 114.224 86.9342C114.456 86.7589 114.65 86.5386 114.794 86.2865C114.938 86.0344 115.03 85.7558 115.064 85.4672C115.098 85.1787 115.073 84.8863 114.992 84.6076L114.999 84.6178Z" fill="#16999F" stroke="#231F20" stroke-linecap="round" stroke-linejoin="round"/>
<path d="M29.9336 74.7202C29.9336 74.7202 51.6404 103.009 67.6116 113.092" stroke="#231F20" stroke-width="2" stroke-linecap="round" stroke-linejoin="round"/>
<path d="M73.413 106.06C56.3207 133.3 41.7679 162.053 29.9385 191.957" stroke="#231F20" stroke-width="2" stroke-linecap="round" stroke-linejoin="round"/>
<path d="M95.9155 21.6641L83.1779 9.78362C82.5767 9.25235 81.7919 8.97673 80.9905 9.01545C80.1892 9.05417 79.4346 9.40417 78.8874 9.99093C78.3402 10.5777 78.0437 11.3549 78.061 12.157C78.0783 12.9591 78.408 13.7228 78.9799 14.2854L86.2771 21.0951L67.2488 21.7595C66.4328 21.788 65.6615 22.1395 65.1046 22.7367C64.5477 23.3339 64.2509 24.1279 64.2794 24.9439C64.3079 25.76 64.6594 26.5313 65.2565 27.0882C65.8537 27.6451 66.6477 27.9419 67.4637 27.9134L86.492 27.2489L79.6875 34.5485C79.1305 35.1458 78.8336 35.9399 78.8621 36.7562C78.8906 37.5724 79.2422 38.3439 79.8395 38.9009C80.4368 39.4579 81.2309 39.7548 82.0472 39.7263C82.8634 39.6978 83.6349 39.3463 84.1919 38.7489L96.0699 26.0114C96.6252 25.4141 96.9208 24.6209 96.8918 23.8058C96.8629 22.9908 96.5118 22.2205 95.9155 21.6641V21.6641Z" fill="black"/>
<path opacity="0.491" d="M73.729 91.5254C86.366 91.5254 96.6104 80.712 96.6104 67.3729C96.6104 54.0338 86.366 43.2203 73.729 43.2203C61.092 43.2203 50.8477 54.0338 50.8477 67.3729C50.8477 80.712 61.092 91.5254 73.729 91.5254Z" fill="#1899A0"/>
</g>
<defs>
<clipPath id="clip0_432_687">
<rect width="175.424" height="150" fill="white"/>
</clipPath>
</defs>
</svg>
