<svg width="43" height="41" viewBox="0 0 43 41" fill="none" xmlns="http://www.w3.org/2000/svg">
<path fill-rule="evenodd" clip-rule="evenodd" d="M28.5308 7.54796C23.8848 6.8053 19.1152 6.8053 14.4692 7.54796C13.5948 7.68773 12.9004 8.32823 12.7261 9.15324C11.1403 16.6596 11.0538 24.3839 12.4711 31.9208L12.7641 33.4791L19.3405 27.5222C20.5506 26.426 22.4493 26.426 23.6595 27.5222L30.2359 33.4791L30.5289 31.9208C31.9461 24.3839 31.8596 16.6596 30.2738 9.15324C30.0996 8.32823 29.4051 7.68773 28.5308 7.54796ZM14.0248 5.02073C18.965 4.23105 24.035 4.23105 28.9751 5.02073C30.9446 5.33554 32.5133 6.77706 32.9084 8.64724C34.5609 16.4695 34.6511 24.5189 33.1742 32.3731L32.7774 34.4834C32.4443 36.2547 30.1796 36.9626 28.8113 35.7232L21.8085 29.38C21.6356 29.2234 21.3644 29.2234 21.1915 29.38L14.1887 35.7232C12.8204 36.9626 10.5557 36.2547 10.2226 34.4834L9.82575 32.373C8.34885 24.5189 8.43901 16.4696 10.0915 8.64724C10.4866 6.77706 12.0554 5.33554 14.0248 5.02073Z" fill="black"/>
</svg>
