<svg viewBox="0 0 27 36" fill="none" xmlns="http://www.w3.org/2000/svg">
  <path fill-rule="evenodd" clip-rule="evenodd" d="M20.8579 4.28437C15.9957 3.46926 11.0043 3.46926 6.14218 4.28437C5.22719 4.43777 4.50045 5.14076 4.31806 6.04626C2.65854 14.285 2.56799 22.7628 4.05116 31.0351L4.35782 32.7454L11.2401 26.2073C12.5065 25.0042 14.4935 25.0042 15.76 26.2073L22.6422 32.7454L22.9489 31.0351C24.432 22.7628 24.3415 14.285 22.682 6.04626C22.4996 5.14076 21.7729 4.43777 20.8579 4.28437ZM5.67717 1.51058C10.8471 0.643852 16.1529 0.643852 21.3229 1.51058C23.3839 1.85611 25.0256 3.43826 25.4391 5.4909C27.1685 14.0764 27.2628 22.911 25.7172 31.5314L25.3019 33.8476C24.9534 35.7917 22.5833 36.5688 21.1514 35.2084L13.8229 28.2463C13.6419 28.0745 13.3581 28.0745 13.1772 28.2463L5.84867 35.2084C4.41673 36.5688 2.04666 35.7917 1.69809 33.8476L1.28281 31.5314C-0.262789 22.911 -0.16843 14.0764 1.56094 5.4909C1.9744 3.43826 3.61614 1.85611 5.67717 1.51058Z" fill="black"/>
</svg>
