<svg viewBox="0 0 31 32" fill="none" xmlns="http://www.w3.org/2000/svg">
  <path fill-rule="evenodd" clip-rule="evenodd" d="M7.53125 8.0625C7.53125 3.66148 11.099 0.09375 15.5 0.09375C19.901 0.09375 23.4688 3.66148 23.4688 8.0625C23.4688 12.4635 19.901 16.0313 15.5 16.0313C11.099 16.0313 7.53125 12.4635 7.53125 8.0625ZM15.5 2.90625C12.6523 2.90625 10.3438 5.21478 10.3438 8.0625C10.3438 10.9102 12.6523 13.2188 15.5 13.2188C18.3477 13.2188 20.6562 10.9102 20.6562 8.0625C20.6562 5.21478 18.3477 2.90625 15.5 2.90625Z" fill="black"/>
  <path fill-rule="evenodd" clip-rule="evenodd" d="M8 21.6563C5.67005 21.6563 3.78125 23.5451 3.78125 25.875V28.103C3.78125 28.137 3.80584 28.1659 3.83932 28.1713C11.562 29.4322 19.438 29.4322 27.1607 28.1713C27.1942 28.1659 27.2188 28.137 27.2188 28.103V25.875C27.2188 23.545 25.33 21.6563 23 21.6563H22.3609C22.3115 21.6563 22.2623 21.6641 22.2154 21.6794L20.5925 22.2093C17.2835 23.2898 13.7165 23.2898 10.4075 22.2093L8.78463 21.6794C8.73765 21.6641 8.68855 21.6563 8.63913 21.6563H8ZM0.96875 25.875C0.96875 21.9918 4.11675 18.8438 8 18.8438H8.63913C8.98505 18.8438 9.3288 18.8985 9.65764 19.0058L11.2805 19.5357C14.0223 20.431 16.9777 20.431 19.7195 19.5357L21.3424 19.0058C21.6712 18.8985 22.0149 18.8438 22.3609 18.8438H23C26.8833 18.8438 30.0312 21.9917 30.0312 25.875V28.103C30.0312 29.5153 29.0077 30.7195 27.6139 30.9471C19.5911 32.2569 11.4089 32.2569 3.38613 30.9471C1.99228 30.7195 0.96875 29.5153 0.96875 28.103V25.875Z" fill="black"/>
</svg>
