<svg viewBox="0 0 36 36" fill="none" xmlns="http://www.w3.org/2000/svg">
  <path fill-rule="evenodd" clip-rule="evenodd" d="M18 3.13199L14.312 6.94782C13.9194 7.35397 13.3788 7.58332 12.814 7.58332H7.58332V12.814C7.58332 13.3788 7.35397 13.9194 6.94782 14.312L3.13198 18L6.94782 21.688C7.35397 22.0805 7.58332 22.6212 7.58332 23.186V28.4167H12.814C13.3788 28.4167 13.9194 28.646 14.312 29.0522L18 32.868L21.688 29.0522C22.0805 28.646 22.6212 28.4167 23.186 28.4167H28.4167V23.186C28.4167 22.6212 28.646 22.0805 29.0522 21.688L32.868 18L29.0522 14.312C28.646 13.9195 28.4167 13.3788 28.4167 12.814V7.58332H23.186C22.6212 7.58332 22.0805 7.35397 21.688 6.94782L18 3.13199ZM16.502 1.0846C17.3209 0.237262 18.6791 0.237264 19.498 1.0846L23.3628 5.08332H28.8333C29.9839 5.08332 30.9167 6.01606 30.9167 7.16665V12.6372L34.9154 16.502C35.7627 17.3209 35.7627 18.6791 34.9154 19.498L30.9167 23.3628V28.8333C30.9167 29.9839 29.9839 30.9167 28.8333 30.9167H23.3628L19.498 34.9154C18.6791 35.7627 17.3209 35.7627 16.502 34.9154L12.6372 30.9167H7.16665C6.01606 30.9167 5.08332 29.9839 5.08332 28.8333V23.3628L1.0846 19.498C0.237264 18.6791 0.237262 17.3209 1.0846 16.502L5.08332 12.6372V7.16665C5.08332 6.01606 6.01606 5.08332 7.16665 5.08332H12.6372L16.502 1.0846Z" fill="black"/>
  <path fill-rule="evenodd" clip-rule="evenodd" d="M10.0833 18C10.0833 13.6277 13.6277 10.0833 18 10.0833C22.3722 10.0833 25.9167 13.6277 25.9167 18C25.9167 22.3722 22.3722 25.9167 18 25.9167C13.6277 25.9167 10.0833 22.3722 10.0833 18ZM18 12.5833C15.0084 12.5833 12.5833 15.0084 12.5833 18C12.5833 20.9915 15.0084 23.4167 18 23.4167C20.9915 23.4167 23.4167 20.9915 23.4167 18C23.4167 15.0084 20.9915 12.5833 18 12.5833Z" fill="black"/>
</svg>
