<svg width="26" height="25" viewBox="0 0 26 25" fill="none" xmlns="http://www.w3.org/2000/svg">
<path d="M13.498 25C20.4016 25 25.998 19.4036 25.998 12.5C25.998 5.59644 20.4016 0 13.498 0C6.59449 0 0.998047 5.59644 0.998047 12.5C0.998047 19.4036 6.59449 25 13.498 25Z" fill="#1899A0"/>
<path d="M11.8502 17.348H11.5352C11.4636 17.3478 11.3926 17.3617 11.3264 17.389C11.2601 17.4163 11.1999 17.4564 11.1493 17.5071C11.0986 17.5577 11.0585 17.6179 11.0312 17.6841C11.0039 17.7504 10.99 17.8214 10.9902 17.893V17.893C10.9902 18.0376 11.0477 18.1762 11.1499 18.2784C11.2521 18.3806 11.3907 18.438 11.5352 18.438H16.1022C16.2468 18.438 16.3854 18.3806 16.4876 18.2784C16.5898 18.1762 16.6472 18.0376 16.6472 17.893C16.6475 17.8214 16.6336 17.7504 16.6063 17.6841C16.579 17.6179 16.5389 17.5577 16.4882 17.5071C16.4375 17.4564 16.3774 17.4163 16.3111 17.389C16.2449 17.3617 16.1739 17.3478 16.1022 17.348H15.7802V8.34802C15.7799 7.93455 15.6491 7.53172 15.4066 7.19687C15.164 6.86202 14.822 6.61222 14.4292 6.48302V6.48302V6.11402C14.4299 6.0332 14.4145 5.95306 14.3839 5.87827C14.3532 5.80347 14.308 5.73552 14.2509 5.67837C14.1937 5.62122 14.1258 5.57602 14.051 5.5454C13.9762 5.51478 13.8961 5.49935 13.8152 5.50002V5.50002C13.735 5.50028 13.6556 5.51639 13.5816 5.54743C13.5077 5.57846 13.4405 5.62381 13.3841 5.68087C13.3277 5.73792 13.2831 5.80556 13.253 5.87989C13.2228 5.95423 13.2076 6.03379 13.2082 6.11402V6.48202C12.8145 6.60991 12.4712 6.85889 12.2273 7.19344C11.9835 7.52799 11.8515 7.93102 11.8502 8.34502V17.348Z" stroke="white" stroke-width="0.5" stroke-linecap="round" stroke-linejoin="round"/>
</svg>
