<svg width="26" height="25" viewBox="0 0 26 25" fill="none" xmlns="http://www.w3.org/2000/svg">
<path d="M13.498 25C20.4016 25 25.998 19.4036 25.998 12.5C25.998 5.59644 20.4016 0 13.498 0C6.59449 0 0.998047 5.59644 0.998047 12.5C0.998047 19.4036 6.59449 25 13.498 25Z" fill="#1899A0"/>
<path d="M8.06544 18.8369C7.93144 18.9679 7.59744 18.8369 7.31744 18.5719C7.03744 18.3069 6.91744 17.9579 7.05544 17.8149L19.1734 5.70691L20.1834 6.71691L8.06544 18.8369Z" stroke="white" stroke-width="0.5" stroke-linecap="round" stroke-linejoin="round"/>
<path d="M20.1875 6.71825C20.2957 6.61007 20.157 6.29602 19.8778 6.0168C19.5986 5.73757 19.2845 5.59891 19.1763 5.70709C19.0682 5.81526 19.2068 6.12931 19.4861 6.40854C19.7653 6.68776 20.0793 6.82642 20.1875 6.71825Z" fill="#1899A0" stroke="white" stroke-width="0.3" stroke-miterlimit="10"/>
</svg>
