<svg width="26" height="25" viewBox="0 0 26 25" fill="none" xmlns="http://www.w3.org/2000/svg">
<path d="M13.498 25C20.4016 25 25.998 19.4036 25.998 12.5C25.998 5.59644 20.4016 0 13.498 0C6.59449 0 0.998047 5.59644 0.998047 12.5C0.998047 19.4036 6.59449 25 13.498 25Z" fill="#1899A0"/>
<path d="M17.895 6H8.07C7.47906 6 7 6.47906 7 7.07V16.895C7 17.4859 7.47906 17.965 8.07 17.965H17.895C18.4859 17.965 18.965 17.4859 18.965 16.895V7.07C18.965 6.47906 18.4859 6 17.895 6Z" stroke="white" stroke-width="0.2" stroke-linecap="round" stroke-linejoin="round"/>
<path d="M11.9172 7.26599H15.3532C15.6775 7.26573 15.9986 7.32937 16.2983 7.45328C16.5979 7.57719 16.8702 7.75894 17.0996 7.98815C17.329 8.21735 17.511 8.48951 17.6351 8.78907C17.7593 9.08863 17.8232 9.40972 17.8232 9.73399V14.334C17.8232 14.9891 17.563 15.6173 17.0998 16.0805C16.6365 16.5438 16.0083 16.804 15.3532 16.804H10.7532C10.0981 16.804 9.46986 16.5438 9.00665 16.0805C8.54343 15.6173 8.2832 14.9891 8.2832 14.334V10.913" stroke="white" stroke-width="0.5" stroke-linecap="round" stroke-linejoin="round"/>
<path d="M11.9183 7.26599V8.44599C11.9177 9.10073 11.6573 9.72847 11.1941 10.1913C10.7309 10.654 10.103 10.914 9.44825 10.914H8.28125" stroke="white" stroke-width="0.5" stroke-linecap="round" stroke-linejoin="round"/>
<path d="M11.8917 7.24304L11.8027 7.33404" stroke="white" stroke-width="0.2" stroke-linecap="round" stroke-linejoin="round"/>
<path d="M11.6208 7.51697L8.42578 10.712" stroke="white" stroke-width="0.3" stroke-linecap="round" stroke-linejoin="round" stroke-dasharray="1.02 1.02"/>
<path d="M8.33319 10.803L8.24219 10.892" stroke="white" stroke-width="0.2" stroke-linecap="round" stroke-linejoin="round"/>
</svg>
