<svg width="16" height="18" viewBox="0 0 16 18" fill="none" xmlns="http://www.w3.org/2000/svg">
<g clip-path="url(#clip0_718_1215)">
<path d="M14.399 1.52278H1.59903V16.3026L7.99904 10.4596L9.1115 11.4709L14.4009 16.3026L14.399 1.52278ZM14.5496 6.31985e-06C14.7389 -0.000550756 14.9262 0.0357263 15.1002 0.106603C15.3664 0.202147 15.596 0.371994 15.759 0.593887C15.9191 0.80934 16.0041 1.06721 16.0019 1.33108V16.6689C16.004 16.9328 15.9191 17.1906 15.759 17.4061C15.6227 17.5891 15.4415 17.7377 15.2313 17.8391C15.0211 17.9406 14.7881 17.9918 14.5524 17.9884C14.1686 17.9937 13.7975 17.8572 13.5171 17.6077L8.00373 12.5619L2.48562 17.6077C2.2071 17.8615 1.83592 18.0024 1.45032 18.0009C1.26108 18.0015 1.07372 17.9652 0.899743 17.8943C0.633566 17.7988 0.403915 17.6289 0.240908 17.407C0.0808167 17.1916 -0.00411804 16.9337 -0.00191118 16.6698V1.33108C-0.00411804 1.06721 0.0808167 0.80934 0.240908 0.593887C0.403915 0.371994 0.633566 0.202147 0.899743 0.106603C1.07372 0.0357263 1.26108 -0.000550756 1.45032 6.31985e-06H14.5524H14.5496Z" fill="#911D7A"/>
</g>
<defs>
<clipPath id="clip0_718_1215">
<rect width="16" height="18" fill="white"/>
</clipPath>
</defs>
</svg>
