<svg width="113" height="154" viewBox="0 0 113 154" fill="none" xmlns="http://www.w3.org/2000/svg">
<path d="M44.3975 124.239C45.9889 122.514 47.9203 121.138 50.0699 120.196C52.2195 119.255 54.5408 118.769 56.8875 118.769C59.2342 118.769 61.5554 119.255 63.705 120.196C65.8546 121.138 67.786 122.514 69.3775 124.239" stroke="#3F3F3F" stroke-width="4" stroke-linecap="round" stroke-linejoin="round"/>
<path d="M15.0576 80.4552C15.6988 75.2187 18.302 70.4202 22.3421 67.0277C28.7825 60.6736 41.3132 60.5441 50.2186 58.4245C58.8461 56.0193 66.2627 50.4756 71.0121 42.8821C72.4169 47.4989 74.9273 51.7032 78.3253 55.1299C83.6579 60.1509 89.2687 62.1122 92.9661 66.6009C95.9207 70.2422 97.6301 74.7349 97.8432 79.4194" stroke="#3F3F3F" stroke-width="4" stroke-linecap="round" stroke-linejoin="round"/>
<path d="M97.9439 106.27V110.586C97.9439 121.569 93.5806 132.103 85.8139 139.87C78.0472 147.637 67.5133 152 56.5295 152V152C51.0861 152.008 45.6945 150.942 40.6632 148.864C35.632 146.786 31.0597 143.737 27.2079 139.89C23.3562 136.044 20.3005 131.476 18.2156 126.448C16.1307 121.419 15.0576 116.029 15.0576 110.586V107.708" stroke="#3F3F3F" stroke-width="4" stroke-linecap="round" stroke-linejoin="round"/>
<path d="M109.986 83.3948V68.6389C109.986 61.8153 108.642 55.0585 106.03 48.7544C103.419 42.4503 99.5907 36.7224 94.7653 31.8978C89.9398 27.0732 84.2112 23.2465 77.9066 20.636C71.602 18.0256 64.845 16.6827 58.0214 16.684V16.684C51.1985 16.684 44.4425 18.0278 38.1391 20.6388C31.8356 23.2498 26.1081 27.0768 21.2837 31.9012C16.4592 36.7257 12.6322 42.4531 10.0212 48.7566C7.41026 55.0601 6.06641 61.8161 6.06641 68.6389V82.9776" stroke="#3F3F3F" stroke-width="4" stroke-linecap="round" stroke-linejoin="round"/>
<path d="M98.2896 79.4528C100.198 79.3242 102.113 79.5956 103.911 80.2496C105.708 80.9037 107.35 81.9259 108.73 83.2509C110.18 85.7125 110.945 88.5175 110.945 91.3746C110.945 94.2317 110.18 97.0367 108.73 99.4982C105.763 102.627 102.052 104.955 97.9443 106.265" stroke="#3F3F3F" stroke-width="4" stroke-linecap="round" stroke-linejoin="round"/>
<path d="M14.6552 80.786C12.7469 80.6612 10.8334 80.9344 9.03622 81.5882C7.23904 82.2421 5.59734 83.2622 4.21528 84.5841C2.7649 87.0456 2 89.8506 2 92.7077C2 95.5648 2.7649 98.3698 4.21528 100.831C7.17661 104.009 10.903 106.375 15.0388 107.703" stroke="#3F3F3F" stroke-width="4" stroke-linecap="round" stroke-linejoin="round"/>
<path d="M41.7881 16.684C41.7881 12.7912 43.3338 9.05772 46.0855 6.30422C48.8372 3.55072 52.5697 2.00254 56.4625 2H60.4188C64.3121 2.00381 68.0448 3.55208 70.7977 6.30503C73.5507 9.05799 75.099 12.7907 75.1028 16.684" stroke="#3F3F3F" stroke-width="4" stroke-linecap="round" stroke-linejoin="round"/>
<path d="M27.0469 107.574C28.0534 107.574 28.8692 106.758 28.8692 105.752C28.8692 104.745 28.0534 103.929 27.0469 103.929C26.0405 103.929 25.2246 104.745 25.2246 105.752C25.2246 106.758 26.0405 107.574 27.0469 107.574Z" fill="#231F20"/>
<path d="M84.9239 108.135C85.9303 108.135 86.7462 107.319 86.7462 106.313C86.7462 105.306 85.9303 104.49 84.9239 104.49C83.9174 104.49 83.1016 105.306 83.1016 106.313C83.1016 107.319 83.9174 108.135 84.9239 108.135Z" fill="#231F20"/>
<path d="M37.5303 112.35C38.5367 112.35 39.3526 111.534 39.3526 110.528C39.3526 109.522 38.5367 108.706 37.5303 108.706C36.5239 108.706 35.708 109.522 35.708 110.528C35.708 111.534 36.5239 112.35 37.5303 112.35Z" fill="#231F20"/>
<path d="M73.6543 109.454C74.6608 109.454 75.4766 108.638 75.4766 107.632C75.4766 106.625 74.6608 105.809 73.6543 105.809C72.6479 105.809 71.832 106.625 71.832 107.632C71.832 108.638 72.6479 109.454 73.6543 109.454Z" fill="#231F20"/>
<path d="M30.6866 120.541C31.693 120.541 32.5089 119.725 32.5089 118.719C32.5089 117.712 31.693 116.896 30.6866 116.896C29.6801 116.896 28.8643 117.712 28.8643 118.719C28.8643 119.725 29.6801 120.541 30.6866 120.541Z" fill="#231F20"/>
<path d="M83.0879 124.181C84.0944 124.181 84.9102 123.365 84.9102 122.359C84.9102 121.352 84.0944 120.536 83.0879 120.536C82.0815 120.536 81.2656 121.352 81.2656 122.359C81.2656 123.365 82.0815 124.181 83.0879 124.181Z" fill="#231F20"/>
<path d="M77.9707 132.755C78.9772 132.755 79.7931 131.94 79.7931 130.933C79.7931 129.927 78.9772 129.111 77.9707 129.111C76.9643 129.111 76.1484 129.927 76.1484 130.933C76.1484 131.94 76.9643 132.755 77.9707 132.755Z" fill="#231F20"/>
<path d="M33.8858 127.883C34.8922 127.883 35.7081 127.067 35.7081 126.061C35.7081 125.054 34.8922 124.239 33.8858 124.239C32.8794 124.239 32.0635 125.054 32.0635 126.061C32.0635 127.067 32.8794 127.883 33.8858 127.883Z" fill="#231F20"/>
<path d="M41.7881 136.4C42.7946 136.4 43.6104 135.584 43.6104 134.578C43.6104 133.571 42.7946 132.755 41.7881 132.755C40.7817 132.755 39.9658 133.571 39.9658 134.578C39.9658 135.584 40.7817 136.4 41.7881 136.4Z" fill="#231F20"/>
<path d="M63.4981 142.495C64.5045 142.495 65.3204 141.679 65.3204 140.673C65.3204 139.666 64.5045 138.851 63.4981 138.851C62.4917 138.851 61.6758 139.666 61.6758 140.673C61.6758 141.679 62.4917 142.495 63.4981 142.495Z" fill="#231F20"/>
<path d="M77.9707 118.719C78.9772 118.719 79.7931 117.903 79.7931 116.897C79.7931 115.89 78.9772 115.074 77.9707 115.074C76.9643 115.074 76.1484 115.89 76.1484 116.897C76.1484 117.903 76.9643 118.719 77.9707 118.719Z" fill="#231F20"/>
<path d="M39.0786 94.7651C40.9325 94.7651 42.4354 92.8908 42.4354 90.5786C42.4354 88.2665 40.9325 86.3921 39.0786 86.3921C37.2246 86.3921 35.7217 88.2665 35.7217 90.5786C35.7217 92.8908 37.2246 94.7651 39.0786 94.7651Z" fill="#3F3F3F"/>
<path d="M72.8061 94.7651C74.6601 94.7651 76.163 92.8908 76.163 90.5786C76.163 88.2665 74.6601 86.3921 72.8061 86.3921C70.9521 86.3921 69.4492 88.2665 69.4492 90.5786C69.4492 92.8908 70.9521 94.7651 72.8061 94.7651Z" fill="#3F3F3F"/>
</svg>
