<svg width="179" height="150" viewBox="0 0 179 150" fill="none" xmlns="http://www.w3.org/2000/svg">
<path d="M88.5023 101.321L72.5131 90.8421L92.0172 53.4787C92.2727 52.9884 92.4078 52.4444 92.4112 51.8915C92.4146 51.3387 92.2861 50.793 92.0366 50.2997C91.787 49.8064 91.4235 49.3797 90.9761 49.0548C90.5288 48.73 90.0105 48.5165 89.4641 48.4319L72.9584 45.8908L80.8372 16.7445C80.9976 16.1481 80.9964 15.5197 80.8336 14.9239C80.6708 14.3281 80.3524 13.7863 79.911 13.3543C73.1174 6.69149 64.442 2.27503 55.0574 0.701915C45.8899 -0.874065 36.4611 0.299383 27.9595 4.07431C27.1163 4.44908 26.4565 5.14347 26.1252 6.00473C25.794 6.866 25.8184 7.82357 26.1932 8.66681C26.5679 9.51005 27.2623 10.1699 28.1236 10.5011C28.9849 10.8324 29.9424 10.8079 30.7857 10.4332C37.8024 7.34749 45.5525 6.32305 53.13 7.47959C60.7075 8.63614 67.7991 11.9259 73.5759 16.9642L65.234 47.8382C65.1063 48.3105 65.0797 48.8044 65.1558 49.2876C65.232 49.7709 65.4092 50.2327 65.6759 50.6428C65.9426 51.0529 66.2928 51.4022 66.7036 51.6678C67.1144 51.9334 67.5767 52.1094 68.0601 52.1843L83.604 54.5592L64.8896 90.4028C64.4916 91.169 64.3927 92.0558 64.6122 92.8909C64.8317 93.7259 65.3538 94.4495 66.0771 94.9211L82.8796 105.941L78.4088 141.125C58.8312 129.283 41.6369 113.889 27.7102 95.7345C16.6608 81.2593 -0.313944 53.5202 10.5216 30.3231C10.9153 29.487 10.9607 28.5287 10.6478 27.6591C10.3349 26.7895 9.68941 26.0798 8.85326 25.6861C8.01711 25.2924 7.05882 25.2471 6.18921 25.5599C5.3196 25.8728 4.60989 26.5183 4.21622 27.3545C-0.840371 38.9406 -1.3679 52.0018 2.73783 63.958C6.99872 77.0249 13.5862 89.2142 22.1825 99.9381C37.6918 120.33 57.2848 137.261 79.7091 149.651C80.2059 149.892 80.7529 150.011 81.3048 149.999C81.8568 149.987 82.3979 149.843 82.8835 149.581C83.369 149.318 83.7851 148.943 84.0972 148.488C84.4094 148.032 84.6087 147.509 84.6786 146.962L90.0222 104.652C90.1035 104.011 90.0043 103.359 89.7358 102.771C89.4673 102.182 89.0402 101.681 88.5023 101.321Z" fill="#3F3F3F"/>
<path d="M164.197 13.6453C155.398 4.90518 143.499 0 131.097 0C118.695 0 106.796 4.90518 97.9964 13.6453C97.3234 14.3134 96.5832 14.9103 95.7876 15.4264C95.0787 15.8869 94.5616 16.5897 94.333 17.4036L89.7614 33.7015C89.6279 34.1778 89.5974 34.6771 89.6722 35.1661C89.747 35.655 89.9253 36.1224 90.195 36.5371C90.4647 36.9518 90.8196 37.3042 91.2363 37.5708C91.6529 37.8374 92.1216 38.0121 92.6112 38.0832L109.556 40.5353L89.4586 81.9124C89.1075 82.637 89.0185 83.4609 89.2069 84.2436C89.3953 85.0264 89.8493 85.7196 90.4916 86.2051L105.56 97.6047L94.5231 145.287C94.3737 145.931 94.4109 146.604 94.6302 147.228C94.8495 147.851 95.2419 148.399 95.7614 148.808C96.2809 149.217 96.906 149.469 97.5637 149.535C98.2213 149.601 98.8841 149.479 99.4747 149.182C116.944 139.476 132.656 126.899 145.952 111.979C158.361 98.3707 173.899 77.5426 177.42 55.438C178.88 47.9194 178.434 40.1547 176.121 32.8531C173.808 25.5515 169.703 18.9458 164.18 13.6393L164.197 13.6453ZM170.568 54.3455C165.141 88.1882 127.457 124.15 103.079 139.184L112.846 96.9873C112.998 96.3325 112.957 95.6476 112.729 95.0154C112.5 94.3831 112.093 93.8307 111.557 93.4249L96.9692 82.3874L117.898 39.3004C118.137 38.8081 118.257 38.2663 118.248 37.7191C118.238 37.1718 118.099 36.6346 117.843 36.1509C117.587 35.6673 117.22 35.251 116.773 34.9358C116.325 34.6205 115.81 34.4153 115.268 34.3368L97.5332 31.7718L100.698 20.491C101.478 19.9039 102.216 19.2631 102.907 18.5732C110.401 11.1217 120.54 6.93917 131.109 6.93917C141.677 6.93917 151.816 11.1217 159.311 18.5732C164.032 23.1172 167.539 28.7726 169.51 35.022C171.48 41.2713 171.852 47.9151 170.592 54.3455H170.568Z" fill="#3F3F3F"/>
<path d="M16.4587 19.5825C17.3815 19.5825 18.2665 19.216 18.919 18.5635C19.5714 17.911 19.938 17.026 19.938 16.1033C19.938 15.1805 19.5714 14.2955 18.919 13.643C18.2665 12.9906 17.3815 12.624 16.4587 12.624C15.536 12.624 14.651 12.9906 13.9985 13.643C13.3461 14.2955 12.9795 15.1805 12.9795 16.1033C12.9795 17.026 13.3461 17.911 13.9985 18.5635C14.651 19.216 15.536 19.5825 16.4587 19.5825Z" fill="#3F3F3F"/>
</svg>
