<svg width="160" height="154" viewBox="0 0 160 154" fill="none" xmlns="http://www.w3.org/2000/svg">
<path d="M35.3135 72.9014C35.3271 70.1046 36.4484 67.4271 38.432 65.4554C40.4155 63.4836 43.0996 62.3782 45.8964 62.3813C54.434 62.3815 62.8288 60.1908 70.2776 56.019C77.9649 50.4734 79.2328 37.1719 79.2328 37.1719C79.2328 37.1719 80.5179 50.4334 88.2052 56.019C95.6465 60.2096 104.046 62.4016 112.586 62.3813C116.653 62.5926 126.133 65.2369 126.133 72.9014V104.713C125.908 116.539 120.997 127.792 112.479 135.998C103.961 144.205 92.5326 148.694 80.7063 148.478V148.478C68.8859 148.685 57.4668 144.192 48.956 135.986C40.4453 127.781 35.5386 116.533 35.3135 104.713V72.9014Z" stroke="#3F3F3F" stroke-width="4" stroke-linecap="round" stroke-linejoin="round"/>
<path d="M61.5397 91.5885C63.6467 91.5885 65.3548 89.456 65.3548 86.8254C65.3548 84.1947 63.6467 82.0622 61.5397 82.0622C59.4327 82.0622 57.7246 84.1947 57.7246 86.8254C57.7246 89.456 59.4327 91.5885 61.5397 91.5885Z" fill="#3F3F3F"/>
<path d="M100.804 91.5885C102.911 91.5885 104.619 89.456 104.619 86.8254C104.619 84.1947 102.911 82.0622 100.804 82.0622C98.6973 82.0622 96.9893 84.1947 96.9893 86.8254C96.9893 89.456 98.6973 91.5885 100.804 91.5885Z" fill="#3F3F3F"/>
<path d="M68.1533 118.934C69.9652 116.971 72.1639 115.405 74.6109 114.333C77.0579 113.262 79.7002 112.709 82.3714 112.709C85.0427 112.709 87.685 113.262 90.132 114.333C92.579 115.405 94.7777 116.971 96.5896 118.934" stroke="#3F3F3F" stroke-width="4" stroke-linecap="round" stroke-linejoin="round"/>
<path d="M77.6452 2.15065C70.0114 1.84716 62.3658 2.22943 54.8003 3.29288C45.5824 5.07478 15.3072 23.6134 15.6498 57.304C15.9925 90.9945 17.3632 121.532 13.7251 127.552C12.5815 129.77 10.9175 131.679 8.87564 133.114C6.83373 134.549 4.47461 135.469 2 135.793C6.47907 141.28 12.2142 145.607 18.7199 148.408C25.2256 151.208 32.3104 152.4 39.3743 151.882" stroke="#3F3F3F" stroke-width="4" stroke-linecap="round" stroke-linejoin="round"/>
<path d="M78.8613 2.08784C87.3537 1.80385 95.8551 2.20876 104.282 3.29861C113.5 5.08051 143.775 23.6192 143.432 57.3097C143.09 91.0003 141.719 121.538 145.357 127.558C146.503 129.769 148.167 131.671 150.207 133.101C152.246 134.531 154.601 135.447 157.071 135.771C152.592 141.257 146.857 145.584 140.351 148.385C133.845 151.185 126.76 152.377 119.697 151.859" stroke="#3F3F3F" stroke-width="4" stroke-linecap="round" stroke-linejoin="round"/>
</svg>
