<svg width="150" height="150" viewBox="0 0 150 150" fill="none" xmlns="http://www.w3.org/2000/svg">
<path d="M60.0612 116.358H57.5721C57.0045 116.355 56.442 116.465 55.9171 116.681C55.3922 116.898 54.9152 117.215 54.5139 117.617C54.1125 118.018 53.7946 118.495 53.5785 119.02C53.3624 119.545 53.2524 120.107 53.2549 120.675C53.2549 121.242 53.3666 121.803 53.5836 122.327C53.8005 122.851 54.1185 123.327 54.5194 123.728C54.9203 124.129 55.3962 124.447 55.92 124.664C56.4438 124.881 57.0052 124.992 57.5721 124.992H93.7268C94.8718 124.992 95.9699 124.537 96.7795 123.728C97.5891 122.918 98.044 121.82 98.044 120.675C98.0465 120.107 97.9365 119.545 97.7204 119.02C97.5043 118.495 97.1864 118.018 96.785 117.617C96.3837 117.215 95.9067 116.898 95.3818 116.681C94.8569 116.465 94.2944 116.355 93.7268 116.358H91.1768V45.0611C91.1651 41.7946 90.1257 38.6147 88.2057 35.9721C86.2858 33.3295 83.5828 31.3582 80.4799 30.3376V27.422C80.4849 26.7823 80.3626 26.1479 80.1201 25.5559C79.8776 24.9639 79.5197 24.426 79.0673 23.9737C78.6149 23.5213 78.0771 23.1634 77.4851 22.9209C76.8931 22.6784 76.2587 22.5561 75.619 22.5611C74.984 22.5635 74.3557 22.6913 73.7702 22.9372C73.1847 23.183 72.6535 23.5421 72.2071 23.9937C71.7607 24.4453 71.4079 24.9806 71.1689 25.569C70.9298 26.1573 70.8094 26.787 70.8143 27.422V30.3376C67.7009 31.3485 64.9856 33.3157 63.055 35.9591C61.1244 38.6026 60.0767 41.7877 60.0612 45.0611V116.358Z" fill="white" stroke="#3F3F3F" stroke-width="4" stroke-linecap="round" stroke-linejoin="round"/>
<path d="M75 145.312C113.833 145.312 145.312 113.833 145.312 75C145.312 36.1675 113.833 4.6875 75 4.6875C36.1675 4.6875 4.6875 36.1675 4.6875 75C4.6875 113.833 36.1675 145.312 75 145.312Z" stroke="#3F3F3F" stroke-width="4"/>
<path d="M18.7129 34.6969L133.857 118.177" stroke="#3F3F3F" stroke-width="4"/>
</svg>
