<svg width="110" height="150" viewBox="0 0 110 150" fill="none" xmlns="http://www.w3.org/2000/svg">
<path d="M57.6095 150C51.6304 149.889 45.8341 147.919 41.0249 144.364C36.2156 140.81 32.632 135.847 30.771 130.163C29.2601 125.221 27.9264 120.228 26.6644 115.214C26.2424 113.64 25.6051 112.982 23.997 113.104C22.6 113.201 21.1819 113.041 19.7765 113.019C17.3818 113.074 15.038 112.324 13.1199 110.889C11.2017 109.455 9.81995 107.418 9.19555 105.106C6.21584 94.0284 3.28677 82.9326 0.408349 71.8184C-0.268224 69.375 -0.100413 66.7748 0.884608 64.4386C1.86963 62.1025 3.61421 60.1671 5.83598 58.9457C10.8205 55.7719 10.7572 55.8268 9.30529 50.2092C7.9383 45.5003 6.83918 40.7178 6.01324 35.8846C5.26091 29.8706 6.51108 23.7763 9.57038 18.5442C12.6297 13.3122 17.3276 9.23384 22.9377 6.94005C31.2552 3.90427 39.8355 1.6437 48.5691 0.187162C54.9935 -0.564582 61.4779 0.963004 66.8911 4.50344C72.3044 8.04387 76.3028 13.3724 78.189 19.5595C79.6915 24.5018 81.0463 29.4947 82.2956 34.4961C82.7176 36.083 83.3549 36.8005 84.963 36.6063C85.4913 36.5693 86.0216 36.5693 86.5499 36.6063C95.2231 36.6063 98.2619 39.0416 100.478 47.4489C103.09 57.363 105.766 67.2645 108.336 77.1743C109.314 79.8516 109.246 82.7992 108.146 85.4286C107.046 88.058 104.995 90.1759 102.402 91.3596C98.0973 93.9299 98.1817 93.8919 99.3551 98.7118C100.983 103.893 102.176 109.201 102.921 114.581C103.595 121.203 101.865 127.846 98.0463 133.298C94.2278 138.75 88.5759 142.647 82.1225 144.277C75.4878 146.235 68.7391 147.822 62.0242 149.502C60.566 149.757 59.0927 149.916 57.6138 149.979L57.6095 150ZM57.7784 145.889C58.0401 145.877 58.3009 145.849 58.5592 145.805C66.9581 143.695 75.4836 142.175 83.7052 139.474C88.8416 137.626 93.1711 134.042 95.9454 129.341C98.7197 124.641 99.7645 119.118 98.8992 113.729C97.7024 107.537 96.1738 101.414 94.3199 95.386C93.6531 92.9761 93.8979 91.368 96.3627 90.296C97.8607 89.5641 99.3062 88.7293 100.689 87.7975C102.436 87.0853 103.83 85.7112 104.568 83.9748C105.306 82.2385 105.327 80.2809 104.627 78.5291C101.861 67.7526 99.0146 56.993 96.0883 46.2503C95.743 44.5931 94.8134 43.1152 93.4692 42.0863C92.1249 41.0574 90.4556 40.546 88.7657 40.6454C86.744 40.561 84.7224 40.3795 82.7134 40.4977C80.2486 40.6581 79.4003 39.3455 78.8516 37.2057C77.3702 31.4404 76.0069 25.5696 74.0908 19.9942C72.2078 14.5412 68.4158 9.95351 63.4146 7.07788C58.4135 4.20224 52.5409 3.23284 46.8809 4.34863C39.8533 5.8286 32.908 7.67551 26.0736 9.88178C20.6961 11.7836 16.1592 15.5169 13.2578 20.4277C10.3563 25.3385 9.27538 31.1136 10.2043 36.7414C11.5591 42.8148 13.1587 48.8206 14.7625 54.8307C15.3111 56.941 15.0917 58.3211 12.9856 59.3594C10.9522 60.4038 8.99969 61.5987 7.14436 62.9342C5.8908 63.6917 4.92731 64.8476 4.40783 66.2171C3.88835 67.5865 3.84285 69.0906 4.2786 70.489C7.15702 81.513 10.0228 92.5371 12.9856 103.527C13.2767 105.014 14.0593 106.36 15.2075 107.348C16.3558 108.336 17.8029 108.91 19.3164 108.976C21.7644 109.145 24.2334 109.229 26.7235 109.229C27.1116 109.184 27.5047 109.217 27.8802 109.324C28.2557 109.432 28.6061 109.614 28.9111 109.858C29.216 110.102 29.4696 110.404 29.657 110.747C29.8444 111.09 29.962 111.466 30.0029 111.855C31.4083 117.451 32.9024 123.048 34.5526 128.581C36.089 133.553 39.1653 137.908 43.3375 141.018C47.5097 144.128 52.5621 145.833 57.7657 145.885L57.7784 145.889Z" fill="#3F3F3F"/>
<path d="M94.0756 120.009C94.223 122.823 93.4195 125.606 91.7943 127.908C90.1691 130.211 87.8167 131.9 85.1153 132.704C75.7752 135.414 66.3887 137.993 56.9558 140.301C55.376 140.715 53.7293 140.808 52.113 140.575C50.4967 140.341 48.9436 139.785 47.5458 138.941C46.148 138.096 44.9338 136.98 43.9751 135.658C43.0164 134.336 42.3327 132.835 41.9643 131.244C39.4025 122.229 37.0347 113.163 34.5573 104.11C28.3221 80.6943 22.0701 57.2645 15.8011 33.8208C15.065 32.0156 14.7487 30.0668 14.8762 28.1215C15.0037 26.1762 15.5717 24.2853 16.5372 22.5917C17.5027 20.8981 18.8405 19.4461 20.4495 18.3454C22.0585 17.2447 23.8966 16.524 25.825 16.2379C34.0255 13.9841 42.3273 12.1018 50.4223 9.5399C52.2128 8.95094 54.1076 8.74803 55.9822 8.94454C57.8567 9.14105 59.6683 9.73251 61.2976 10.68C62.927 11.6274 64.3371 12.9094 65.435 14.4414C66.533 15.9733 67.2938 17.7206 67.6675 19.5679C73.8042 43.2959 80.2575 66.9606 86.5714 90.6506C88.9406 99.5447 91.2858 108.446 93.6071 117.354C93.8094 118.23 93.9644 119.116 94.0714 120.009H94.0756ZM19.0172 29.5664C19.1016 30.0223 19.2409 31.1534 19.5363 32.2423C23.6049 47.5741 27.7031 62.8934 31.8308 78.1999L45.5856 129.467C45.7793 130.738 46.2542 131.949 46.9757 133.013C47.6972 134.076 48.6471 134.966 49.756 135.616C50.8649 136.265 52.1049 136.66 53.3855 136.769C54.6661 136.879 55.9551 136.701 57.1584 136.249C65.7064 133.998 74.2502 131.695 82.7898 129.34C84.1048 129.127 85.3545 128.62 86.4456 127.856C87.5367 127.092 88.4408 126.09 89.0903 124.927C89.7398 123.764 90.1179 122.47 90.1962 121.14C90.2746 119.81 90.0511 118.48 89.5427 117.248C83.1049 93.0506 76.6517 68.8528 70.183 44.6549C67.9503 36.2645 65.7725 27.8782 63.4765 19.5089C63.028 17.3208 61.7305 15.3997 59.8683 14.1664C58.0061 12.9331 55.731 12.4882 53.5413 12.929C43.948 15.3643 34.3927 17.9937 24.8838 20.7159C23.0313 21.2821 21.4333 22.4744 20.3631 24.089C19.2929 25.7035 18.8171 27.6398 19.0172 29.5664Z" fill="#3F3F3F"/>
<path d="M52.4563 114.172C49.3795 114.235 48.3834 112.332 47.7925 110.086C45.8047 102.553 43.859 95.002 41.8838 87.4683C38.4482 74.4211 35.0001 61.374 31.5392 48.3268C30.273 43.469 31.0538 42.1057 35.9497 40.772L54.4399 35.758C58.3861 34.6987 60.1841 35.6736 61.2308 39.6283C66.7878 60.5313 72.328 81.4385 77.8513 102.35C78.6321 105.304 77.8514 107.271 75.2599 108.043C68.0343 110.154 60.7454 112.095 53.4776 114.075C53.1412 114.141 52.7991 114.173 52.4563 114.172ZM34.865 45.2669C40.664 67.1252 46.366 88.5867 52.1313 110.327L74.1457 104.224L56.8414 39.2273L34.865 45.2669Z" fill="#3F3F3F"/>
<path d="M58.6944 71.8902C60.2375 71.8902 61.4884 70.0138 61.4884 67.6992C61.4884 65.3846 60.2375 63.5082 58.6944 63.5082C57.1513 63.5082 55.9004 65.3846 55.9004 67.6992C55.9004 70.0138 57.1513 71.8902 58.6944 71.8902Z" fill="#C61825"/>
<path d="M55.9005 85.4002C57.4435 85.4002 58.6945 84.1492 58.6945 82.6061C58.6945 81.0631 57.4435 79.8121 55.9005 79.8121C54.3574 79.8121 53.1064 81.0631 53.1064 82.6061C53.1064 84.1492 54.3574 85.4002 55.9005 85.4002Z" fill="#C61825"/>
<path d="M59.2764 88.7766C60.8195 88.7766 62.0704 87.5257 62.0704 85.9826C62.0704 84.4395 60.8195 83.1886 59.2764 83.1886C57.7333 83.1886 56.4824 84.4395 56.4824 85.9826C56.4824 87.5257 57.7333 88.7766 59.2764 88.7766Z" fill="#C61825"/>
</svg>
