<svg width="128" height="154" viewBox="0 0 128 154" fill="none" xmlns="http://www.w3.org/2000/svg">
<path d="M57.543 50.5937V34.9543C57.5477 30.1612 56.038 25.4892 53.2294 21.6053C50.4207 17.7213 46.4569 14.824 41.9036 13.327V9.07996C41.9036 7.20547 41.1602 5.40748 39.8365 4.08026C38.5128 2.75305 36.7168 2.00494 34.8423 2C32.9646 2 31.1638 2.74592 29.836 4.07367C28.5083 5.40142 27.7623 7.20224 27.7623 9.07996V13.327C23.211 14.8271 19.2491 17.7252 16.441 21.6085C13.6329 25.4917 12.1218 30.1621 12.1229 34.9543V139.334H8.32394C6.64755 139.334 5.03975 139.999 3.85392 141.184C2.66809 142.369 2.00128 143.976 2.00004 145.653C1.99697 146.485 2.15828 147.31 2.47471 148.08C2.79114 148.85 3.25646 149.55 3.844 150.14C4.43153 150.729 5.12971 151.197 5.89849 151.516C6.66726 151.836 7.49151 152 8.32394 152H61.3186C62.9939 151.988 64.5964 151.314 65.7767 150.125C66.9569 148.936 67.6193 147.328 67.6192 145.653C67.6192 143.976 66.9529 142.367 65.767 141.181C64.581 139.995 62.9725 139.329 61.2953 139.329H57.5196V78.1154" stroke="#3F3F3F" stroke-width="4" stroke-linecap="round" stroke-linejoin="round"/>
<path d="M57.5199 78.1201C55.6694 78.1964 53.8227 77.8978 52.0906 77.2423C50.3584 76.5868 48.7767 75.5879 47.4404 74.3056C46.1042 73.0233 45.0409 71.484 44.3146 69.7804C43.5883 68.0768 43.2139 66.2439 43.2139 64.3919C43.2139 62.5399 43.5883 60.707 44.3146 59.0033C45.0409 57.2997 46.1042 55.7605 47.4404 54.4782C48.7767 53.1959 50.3584 52.1969 52.0906 51.5414C53.8227 50.8859 55.6694 50.5873 57.5199 50.6636" stroke="#3F3F3F" stroke-width="4" stroke-linecap="round" stroke-linejoin="round"/>
<path d="M67.792 47.728L68.512 72.784H71.488L72.256 47.728H67.792ZM70 76.288C69.184 76.288 68.512 76.528 67.936 77.104C67.36 77.632 67.12 78.304 67.12 79.12C67.12 79.936 67.36 80.608 67.936 81.184C68.512 81.712 69.184 82 70 82C70.816 82 71.536 81.712 72.112 81.184C72.64 80.656 72.928 79.984 72.928 79.12C72.928 78.304 72.64 77.632 72.112 77.104C71.536 76.528 70.816 76.288 70 76.288Z" fill="#D22026"/>
<path d="M67.792 47.728V47.628H67.6891L67.692 47.7309L67.792 47.728ZM68.512 72.784L68.412 72.7869L68.4148 72.884H68.512V72.784ZM71.488 72.784V72.884H71.585L71.588 72.7871L71.488 72.784ZM72.256 47.728L72.356 47.7311L72.3591 47.628H72.256V47.728ZM67.936 77.104L68.0036 77.1778L68.0067 77.1747L67.936 77.104ZM67.936 81.184L67.8652 81.2548L67.8684 81.2577L67.936 81.184ZM72.112 81.184L72.1796 81.2578L72.1827 81.2547L72.112 81.184ZM72.112 77.104L72.0413 77.1747L72.112 77.104ZM67.692 47.7309L68.412 72.7869L68.612 72.7811L67.892 47.7251L67.692 47.7309ZM68.512 72.884H71.488V72.684H68.512V72.884ZM71.588 72.7871L72.356 47.7311L72.156 47.7249L71.388 72.7809L71.588 72.7871ZM72.256 47.628H67.792V47.828H72.256V47.628ZM70 76.188C69.1611 76.188 68.4625 76.4361 67.8653 77.0333L68.0067 77.1747C68.5615 76.6199 69.2069 76.388 70 76.388V76.188ZM67.8684 77.0303C67.2677 77.581 67.02 78.2821 67.02 79.12H67.22C67.22 78.3259 67.4523 77.683 68.0036 77.1777L67.8684 77.0303ZM67.02 79.12C67.02 79.9589 67.2681 80.6575 67.8653 81.2547L68.0067 81.1133C67.4519 80.5585 67.22 79.9131 67.22 79.12H67.02ZM67.8684 81.2577C68.4615 81.8014 69.1572 82.1 70 82.1V81.9C69.2108 81.9 68.5625 81.6226 68.0036 81.1103L67.8684 81.2577ZM70 82.1C70.8411 82.1 71.5852 81.8026 72.1796 81.2577L72.0444 81.1103C71.4868 81.6214 70.7909 81.9 70 81.9V82.1ZM72.1827 81.2547C72.7304 80.707 73.028 80.0092 73.028 79.12H72.828C72.828 79.9588 72.5496 80.605 72.0413 81.1133L72.1827 81.2547ZM73.028 79.12C73.028 78.2779 72.7298 77.5803 72.1827 77.0333L72.0413 77.1747C72.5502 77.6837 72.828 78.3301 72.828 79.12H73.028ZM72.1827 77.0333C71.5845 76.435 70.8371 76.188 70 76.188V76.388C70.7949 76.388 71.4875 76.621 72.0413 77.1747L72.1827 77.0333Z" fill="#D22026"/>
</svg>
