<svg width="154" height="79" viewBox="0 0 154 79" fill="none" xmlns="http://www.w3.org/2000/svg">
<path d="M103.157 64.5769C102.521 64.0936 102.009 63.466 101.662 62.7458C101.316 62.0257 101.145 61.2335 101.165 60.4346C101.232 59.803 101.44 59.1944 101.772 58.6533C102.105 58.1122 102.555 57.6525 103.088 57.3077C103.358 57.1735 103.597 56.9857 103.791 56.7559C103.986 56.5261 104.131 56.259 104.219 55.9711C104.307 55.6831 104.335 55.3803 104.302 55.0811C104.269 54.7819 104.175 54.4925 104.027 54.2308C103.813 53.7996 103.446 53.4641 102.998 53.2904C102.549 53.1167 102.052 53.1174 101.604 53.2924C101.401 53.4236 101.218 53.5814 101.057 53.7616C100.541 54.3362 99.8754 54.7557 99.1343 54.9731C98.7718 55.0717 98.3923 55.0915 98.0214 55.0311C97.6506 54.9707 97.297 54.8316 96.9844 54.6231C96.73 54.4724 96.511 54.2687 96.3424 54.0258C96.1738 53.7829 96.0596 53.5065 96.0075 53.2154C95.9987 52.492 96.1402 51.7746 96.4228 51.1086C96.7055 50.4426 97.1233 49.8425 97.6497 49.3462C98.392 48.4462 99.0574 47.5885 98.9382 46.8077C98.8392 46.1953 98.5249 45.6383 98.0518 45.2371C97.5786 44.8359 96.9778 44.6168 96.3574 44.6193C95.8985 44.6117 95.4546 44.7828 95.1195 45.0964C94.7843 45.41 94.5842 45.8416 94.5613 46.3C94.5901 47.1557 94.4159 48.0062 94.0529 48.7816C93.6899 49.5571 93.1484 50.2356 92.4728 50.7616C92.0107 50.9846 91.4996 51.0871 90.9871 51.0595C90.4747 51.032 89.9776 50.8752 89.5421 50.6039C89.2355 50.4144 88.8921 50.2921 88.5348 50.2451C88.1774 50.198 87.8142 50.2272 87.469 50.3308C87.247 50.4238 87.0499 50.5676 86.8936 50.7506C86.7373 50.9337 86.6261 51.1508 86.569 51.3847C86.2959 52.2039 86.7266 52.7923 87.3882 53.5346C87.5522 53.6854 87.6969 53.8559 87.8189 54.0423C88.0307 54.3234 88.1789 54.6471 88.2533 54.9911C88.3277 55.3351 88.3264 55.6912 88.2497 56.0346C88.1008 56.6883 87.728 57.2692 87.1959 57.677C86.8687 57.9192 86.4941 58.09 86.0966 58.1781C85.6991 58.2662 85.2876 58.2698 84.8886 58.1885C84.4897 58.1073 84.1123 57.943 83.7809 57.7065C83.4495 57.4699 83.1716 57.1664 82.9651 56.8154C82.5514 56.1816 82.012 55.6394 81.3802 55.2226C80.7483 54.8058 80.0376 54.5232 79.292 54.3923C79.144 54.3757 78.9944 54.4025 78.8613 54.4693C77.9997 54.7039 77.769 55.6808 77.7074 56.1885C77.5497 57.4769 78.569 58.0269 80.2075 58.8077C81.4103 59.2327 82.449 60.0252 83.1766 61.0731C83.7613 62.2846 83.019 63.3385 82.2767 64.3539C81.6892 64.9762 81.2586 65.7297 81.0205 66.5518C80.7823 67.3738 80.7436 68.2408 80.9074 69.0808C81.0739 69.9983 81.5336 70.8369 82.2175 71.4708C82.9013 72.1047 83.7723 72.4996 84.6998 72.5962C85.6191 72.7409 86.5607 72.6189 87.4129 72.2446C88.265 71.8704 88.992 71.2596 89.5074 70.4847C90.7959 67.9847 92.242 66.6154 93.8459 66.4193C96.1113 66.1077 97.9497 68.1385 98.9266 69.2346C99.0036 69.3115 99.0843 69.4308 99.1613 69.5077C99.5926 69.9269 100.128 70.2237 100.712 70.3677C101.296 70.5117 101.908 70.4976 102.484 70.327C103.024 70.2192 103.525 69.9706 103.937 69.6065C104.349 69.2424 104.657 68.7757 104.83 68.2539C104.906 67.5474 104.791 66.8334 104.497 66.1867C104.202 65.5399 103.74 64.9839 103.157 64.5769Z" fill="#C61825"/>
<path d="M70.3614 71.8462C69.1101 71.1821 68.4459 70.4397 68.369 69.6192C68.2536 68.4846 69.269 67.5885 69.8536 67.1192L69.969 67.0039C70.1855 66.7961 70.3431 66.5346 70.4255 66.2461C70.5079 65.9576 70.5123 65.6523 70.4383 65.3615C70.3885 65.0957 70.2678 64.8482 70.0891 64.6451C69.9104 64.442 69.6803 64.2909 69.4229 64.2077C69.07 64.1593 68.7106 64.205 68.3811 64.3401C68.0515 64.4752 67.7634 64.6948 67.546 64.9769C67.2951 65.2912 66.9723 65.5405 66.6048 65.7039C66.2373 65.8672 65.8358 65.9397 65.4344 65.9154C65.1173 65.8754 64.8136 65.763 64.5469 65.587C64.2801 65.4109 64.0574 65.1759 63.896 64.9C63.8333 64.7612 63.7425 64.637 63.6292 64.5351C63.516 64.4333 63.3829 64.356 63.2383 64.3083C63.0936 64.2606 62.9407 64.2434 62.7891 64.2579C62.6375 64.2723 62.4905 64.3181 62.3575 64.3923C62.138 64.4957 61.9647 64.6768 61.8709 64.9006C61.7771 65.1243 61.7696 65.3749 61.8498 65.6039C61.9042 65.7129 61.9848 65.8068 62.0845 65.8769C62.3579 66.1486 62.5588 66.4845 62.669 66.8539C62.7415 67.2173 62.6713 67.5947 62.4729 67.9077C62.3912 68.0356 62.2823 68.1439 62.154 68.225C62.0257 68.3061 61.8811 68.3579 61.7306 68.3769C61.3634 68.3783 61.0006 68.2983 60.6681 68.1427C60.3356 67.9871 60.0416 67.7597 59.8075 67.4769C59.3767 67.0923 58.946 66.7346 58.5575 66.8115C58.2493 66.8477 57.9646 66.9942 57.7561 67.224C57.5475 67.4538 57.4291 67.7513 57.4229 68.0615C57.4151 68.175 57.4303 68.2889 57.4677 68.3963C57.505 68.5037 57.5638 68.6024 57.6403 68.6865C57.7169 68.7706 57.8096 68.8383 57.9131 68.8856C58.0165 68.9328 58.1284 68.9587 58.2421 68.9616C59.396 69.1193 60.1652 69.4692 60.4306 70.0577C60.545 70.2931 60.5946 70.5547 60.5743 70.8157C60.554 71.0766 60.4646 71.3274 60.3152 71.5423C60.2182 71.6978 60.1541 71.8716 60.1269 72.0529C60.0998 72.2342 60.1102 72.4191 60.1575 72.5961C60.2053 72.7051 60.2751 72.8029 60.3624 72.8837C60.4498 72.9644 60.5529 73.0263 60.6652 73.0654C61.0498 73.2231 61.3691 73.0269 61.7614 72.6808C61.8294 72.6041 61.9085 72.538 61.996 72.4846C62.1439 72.3866 62.3098 72.3188 62.4841 72.2852C62.6583 72.2515 62.8375 72.2526 63.0114 72.2884C63.2927 72.3575 63.5467 72.5099 63.74 72.7256C63.9333 72.9414 64.0569 73.2105 64.0947 73.4977C64.1326 73.7849 64.0828 74.0768 63.952 74.3353C63.8211 74.5937 63.6152 74.8067 63.3613 74.9462C63.0417 75.1355 62.7653 75.3898 62.55 75.6925C62.3347 75.9953 62.1853 76.3398 62.1113 76.7039C62.3223 76.7339 62.5228 76.8143 62.696 76.9384C62.8114 76.9769 62.9306 76.9769 63.046 77.0154C63.2877 77.0521 63.524 77.1179 63.7498 77.2115C63.975 76.9399 64.159 76.6367 64.296 76.3115C64.5144 75.7176 64.9192 75.2102 65.4498 74.8654C66.0768 74.5923 66.5844 74.9808 67.0921 75.3731C67.3926 75.6792 67.7637 75.907 68.1728 76.0364C68.5818 76.1658 69.0163 76.193 69.4383 76.1154C69.9037 76.0469 70.3331 75.825 70.6584 75.4851C70.9837 75.1452 71.1864 74.7065 71.2345 74.2385C71.3397 73.798 71.313 73.3363 71.1577 72.9109C71.0025 72.4856 70.7256 72.1153 70.3614 71.8462Z" fill="#C61825"/>
<path d="M73.2192 65.1231C73.663 65.7809 73.9503 66.5316 74.0589 67.3177C74.1676 68.1037 74.0948 68.9042 73.8461 69.6577C73.5858 70.2409 73.1975 70.758 72.7101 71.1708C72.2228 71.5836 71.6488 71.8814 71.0307 72.0423C70.7312 72.087 70.444 72.1927 70.187 72.3528C69.9299 72.5129 69.7083 72.724 69.536 72.9731C69.3637 73.2222 69.2443 73.5039 69.1852 73.8009C69.1261 74.098 69.1285 74.404 69.1923 74.7C69.2614 75.1722 69.5036 75.6017 69.8718 75.9053C70.24 76.2088 70.7079 76.3646 71.1846 76.3424C71.4141 76.2714 71.6368 76.18 71.85 76.0693C72.5137 75.6814 73.2697 75.4795 74.0385 75.4846C74.414 75.5033 74.7816 75.5998 75.1179 75.768C75.4542 75.9361 75.752 76.1723 75.9923 76.4615C76.3769 76.9692 91.273 75.8769 91.0769 74.6231C90.8807 73.2962 91.9385 72.5115 92.9538 71.7692C93.7041 71.3585 94.3465 70.7761 94.8284 70.0695C95.3104 69.3629 95.6183 68.5523 95.7269 67.7039C95.8511 66.7799 95.6752 65.8405 95.2251 65.0241C94.775 64.2077 94.0745 63.5574 93.2269 63.1693C92.3993 62.734 91.4625 62.5502 90.5318 62.6404C89.6011 62.7306 88.7171 63.0909 87.9885 63.677C87.3525 64.4923 86.5339 65.1468 85.5986 65.5877C84.6633 66.0286 83.6374 66.2436 82.6038 66.2154C80.3769 65.7846 79.2423 63.3231 78.6576 61.9577C78.613 61.85 78.5603 61.7459 78.4999 61.6462C78.2263 61.1125 77.8125 60.6633 77.303 60.3469C76.7935 60.0304 76.2074 59.8587 75.6076 59.85C75.0678 59.7876 74.5209 59.8664 74.0207 60.0788C73.5204 60.2911 73.0839 60.6298 72.7538 61.0616C72.4761 61.7215 72.373 62.4419 72.4545 63.1533C72.536 63.8647 72.7994 64.543 73.2192 65.1231Z" fill="#C61825"/>
<path d="M76.9808 76.4308C73.3296 76.6597 69.667 76.6353 66.0192 76.3577C49.2462 70.8077 2 44.5115 2 44.5115L7.81154 2H146.231L152 44.4731C152 44.4731 104.719 70.7692 87.9808 76.3192C84.3208 76.6058 80.6456 76.6418 76.9808 76.4269" stroke="#3F3F3F" stroke-width="3" stroke-miterlimit="10" stroke-linecap="round" stroke-linejoin="round"/>
<path d="M7.27734 12.3154H147.193" stroke="#3F3F3F" stroke-width="3" stroke-miterlimit="10" stroke-linecap="round" stroke-linejoin="round"/>
<path d="M3.71875 42.2231C16.6691 42.2596 29.4659 45.0289 41.2726 50.35C52.2327 56.0832 61.5024 64.5838 68.161 75.0077" stroke="#3F3F3F" stroke-width="3" stroke-miterlimit="10" stroke-linecap="round" stroke-linejoin="round"/>
<path d="M150.589 42.2231C137.638 42.2595 124.842 45.0288 113.035 50.35C102.075 56.0831 92.805 64.5837 86.1465 75.0077" stroke="#3F3F3F" stroke-width="3" stroke-miterlimit="10" stroke-linecap="round" stroke-linejoin="round"/>
</svg>
