<svg width="133" height="150" viewBox="0 0 133 150" fill="none" xmlns="http://www.w3.org/2000/svg">
<g clip-path="url(#clip0_434_529)">
<path d="M67.8227 81.8645C67.5453 81.8046 67.2594 81.7956 66.9788 81.8379C65.6184 81.6794 64.3635 81.0272 63.4518 80.0051C62.5402 78.9829 62.0353 77.6618 62.0328 76.2922C62.0034 75.6596 61.7314 75.0627 61.2733 74.6254C60.8152 74.1881 60.2063 73.9441 59.573 73.9441C58.9398 73.9441 58.3308 74.1881 57.8728 74.6254C57.4147 75.0627 57.1427 75.6596 57.1133 76.2922C57.1159 78.5957 57.8742 80.8348 59.2719 82.6658C60.6696 84.4968 62.6294 85.8186 64.8507 86.4284V88.8909C64.8353 89.2235 64.8875 89.5558 65.0041 89.8677C65.1207 90.1796 65.2995 90.4646 65.5294 90.7054C65.7593 90.9463 66.0357 91.138 66.3418 91.269C66.648 91.4 66.9775 91.4676 67.3105 91.4676C67.6435 91.4676 67.9731 91.4 68.2792 91.269C68.5854 91.138 68.8617 90.9463 69.0917 90.7054C69.3216 90.4646 69.5002 90.1796 69.6169 89.8677C69.7335 89.5558 69.7857 89.2235 69.7702 88.8909V86.577C72.3147 86.0444 74.5715 84.5876 76.1043 82.4879C77.6371 80.3883 78.3371 77.795 78.0692 75.2092C77.8012 72.6235 76.5843 70.2288 74.6536 68.488C72.7228 66.7473 70.2153 65.7841 67.6157 65.7845C66.5105 65.7845 65.43 65.4568 64.511 64.8428C63.5921 64.2287 62.8758 63.3559 62.4528 62.3348C62.0299 61.3137 61.9192 60.1902 62.1348 59.1062C62.3505 58.0222 62.8827 57.0265 63.6642 56.2449C64.4458 55.4634 65.4415 54.9312 66.5255 54.7155C67.6095 54.4999 68.733 54.6106 69.7541 55.0335C70.7752 55.4565 71.648 56.1728 72.2621 57.0917C72.8761 58.0107 73.2038 59.0911 73.2038 60.1964C73.2332 60.829 73.5052 61.4259 73.9633 61.8632C74.4214 62.3005 75.0303 62.5445 75.6636 62.5445C76.2969 62.5445 76.9058 62.3005 77.3639 61.8632C77.822 61.4259 78.094 60.829 78.1234 60.1964C78.1205 57.7844 77.2891 55.4467 75.7685 53.5744C74.2479 51.7021 72.1303 50.409 69.7702 49.9116V47.6721C69.7409 47.0395 69.4689 46.4424 69.0108 46.0051C68.5528 45.5679 67.9438 45.3239 67.3105 45.3239C66.6772 45.3239 66.0683 45.5679 65.6102 46.0051C65.1521 46.4424 64.8801 47.0395 64.8507 47.6721V50.0602C62.4003 50.7346 60.2775 52.2744 58.8753 54.3941C57.4732 56.5139 56.8869 59.07 57.225 61.5889C57.5631 64.1079 58.8027 66.4188 60.7142 68.0938C62.6256 69.7688 65.0794 70.6943 67.621 70.6987C69.0435 70.7569 70.3901 71.3563 71.3853 72.3745C72.3804 73.3926 72.9491 74.7524 72.9748 76.1759C73.0006 77.5994 72.4815 78.979 71.5238 80.0325C70.5661 81.0859 69.2422 81.7337 67.8227 81.8433V81.8645Z" fill="#3F3F3F"/>
<path d="M31.9639 68.4274C31.9639 75.4839 34.0564 82.3819 37.9768 88.2492C41.8972 94.1165 47.4694 98.6895 53.9888 101.39C60.5081 104.09 67.6818 104.797 74.6028 103.42C81.5237 102.044 87.881 98.6455 92.8707 93.6558C97.8605 88.6661 101.258 82.3088 102.635 75.3879C104.012 68.4669 103.305 61.2932 100.605 54.7738C97.9044 48.2545 93.3314 42.6823 87.4641 38.7619C81.5969 34.8415 74.6988 32.749 67.6423 32.749C58.1798 32.749 49.1048 36.5079 42.4138 43.1989C35.7228 49.8899 31.9639 58.9649 31.9639 68.4274ZM67.6423 37.6473C73.73 37.6473 79.6811 39.4525 84.7428 42.8347C89.8046 46.2168 93.7497 51.024 96.0794 56.6483C98.4091 62.2727 99.0186 68.4615 97.831 74.4323C96.6433 80.4031 93.7118 85.8876 89.4071 90.1922C85.1024 94.4969 79.618 97.4284 73.6472 98.6161C67.6764 99.8037 61.4876 99.1942 55.8633 96.8645C50.2389 94.5348 45.4317 90.5897 42.0496 85.5279C38.6674 80.4661 36.8622 74.5151 36.8622 68.4274C36.8678 60.2722 40.1095 52.4527 45.8756 46.6857C51.6416 40.9186 59.4606 37.6755 67.6157 37.6685L67.6423 37.6473Z" fill="#3F3F3F"/>
<path d="M115.425 110.156L96.1506 119.262C94.843 116.83 92.9171 114.786 90.5672 113.337C88.2173 111.887 85.5266 111.082 82.7665 111.005L64.9725 110.517C62.1542 110.437 59.39 109.724 56.8847 108.431L55.0751 107.492C50.5073 105.111 45.4316 103.871 40.2808 103.876C35.13 103.882 30.0569 105.133 25.4943 107.523L25.6057 103.421C25.6229 102.769 25.3804 102.137 24.9317 101.663C24.4829 101.189 23.8645 100.913 23.2123 100.895L3.7041 100.364C3.38096 100.355 3.05919 100.41 2.75722 100.525C2.45525 100.641 2.17901 100.815 1.94435 101.037C1.70968 101.259 1.5212 101.526 1.3897 101.821C1.25819 102.116 1.18626 102.435 1.17801 102.758L-0.000127358 145.579C-0.0172513 146.232 0.225185 146.864 0.67394 147.338C1.12269 147.811 1.74108 148.087 2.39329 148.105L21.9015 148.636H21.9705C22.6118 148.636 23.2279 148.386 23.6877 147.939C24.1476 147.493 24.415 146.884 24.4329 146.243L24.4913 144.194L29.5594 141.482C31.5483 140.411 33.8761 140.156 36.0498 140.771L66.2992 149.262L66.4584 149.305C68.6454 149.762 70.8738 149.991 73.108 149.989C77.8413 149.992 82.5192 148.971 86.821 146.996C86.9278 146.948 87.0307 146.891 87.1288 146.826L131.017 118.44C131.544 118.099 131.921 117.57 132.071 116.96C132.221 116.35 132.133 115.707 131.824 115.16C130.256 112.38 127.678 110.309 124.626 109.378C121.573 108.446 118.278 108.725 115.425 110.156ZM4.98837 143.255L6.04976 105.358L20.6385 105.762L19.5771 143.658L4.98837 143.255ZM84.624 142.613C79.2784 145.025 73.3083 145.692 67.5622 144.518L37.3765 136.027C33.9801 135.067 30.3435 135.464 27.235 137.136L24.624 138.537L25.3192 113.34C29.3495 110.662 34.0241 109.114 38.8561 108.856C43.6881 108.598 48.5008 109.641 52.7931 111.875L54.6027 112.814C57.766 114.454 61.2574 115.36 64.8186 115.468L82.6126 115.956C85.0404 116.026 87.3736 116.913 89.2351 118.473C91.0966 120.033 92.3776 122.175 92.8709 124.553L66.3682 123.821C65.7309 123.827 65.1207 124.079 64.6657 124.526C64.2108 124.972 63.9467 125.577 63.9288 126.214C63.9109 126.851 64.1408 127.47 64.5699 127.942C64.9991 128.413 65.5942 128.699 66.2302 128.74L95.4819 129.547H95.5509C96.1913 129.546 96.806 129.295 97.2647 128.849C97.7235 128.402 97.9901 127.794 98.008 127.154C98.0374 126.087 97.9574 125.02 97.7692 123.97L117.537 114.629L117.596 114.603C118.964 113.912 120.51 113.656 122.027 113.869C123.545 114.081 124.961 114.752 126.087 115.792L84.624 142.613Z" fill="#3F3F3F"/>
<path d="M70.0726 25.8341V2.4624C70.088 2.12977 70.0358 1.79746 69.9192 1.48557C69.8026 1.17368 69.6238 0.888682 69.3939 0.64782C69.164 0.406958 68.8876 0.215234 68.5815 0.084242C68.2753 -0.0467501 67.9458 -0.114288 67.6128 -0.114288C67.2798 -0.114288 66.9503 -0.0467501 66.6442 0.084242C66.338 0.215234 66.0616 0.406958 65.8316 0.64782C65.6017 0.888682 65.4231 1.17368 65.3064 1.48557C65.1898 1.79746 65.1376 2.12977 65.153 2.4624V25.8128C65.1376 26.1455 65.1898 26.4778 65.3064 26.7897C65.4231 27.1016 65.6017 27.3866 65.8316 27.6274C66.0616 27.8683 66.338 28.06 66.6442 28.191C66.9503 28.322 67.2798 28.3895 67.6128 28.3895C67.9458 28.3895 68.2753 28.322 68.5815 28.191C68.8876 28.06 69.164 27.8683 69.3939 27.6274C69.6238 27.3866 69.8026 27.1016 69.9192 26.7897C70.0358 26.4778 70.088 26.1455 70.0726 25.8128V25.8341Z" fill="#3F3F3F"/>
<path d="M88.5299 25.8341V14.7638C88.5005 14.1312 88.2285 13.5343 87.7705 13.097C87.3124 12.6597 86.7034 12.4157 86.0701 12.4157C85.4368 12.4157 84.8278 12.6597 84.3698 13.097C83.9117 13.5343 83.6397 14.1312 83.6104 14.7638V25.8341C83.6397 26.4667 83.9117 27.0636 84.3698 27.5009C84.8278 27.9382 85.4368 28.1822 86.0701 28.1822C86.7034 28.1822 87.3124 27.9382 87.7705 27.5009C88.2285 27.0636 88.5005 26.4667 88.5299 25.8341Z" fill="#3F3F3F"/>
<path d="M51.6204 25.8341V14.7638C51.6359 14.4312 51.5837 14.0989 51.467 13.787C51.3504 13.4751 51.1717 13.1901 50.9417 12.9492C50.7118 12.7084 50.4354 12.5167 50.1293 12.3857C49.8232 12.2547 49.4936 12.1871 49.1607 12.1871C48.8277 12.1871 48.4982 12.2547 48.192 12.3857C47.8859 12.5167 47.6094 12.7084 47.3795 12.9492C47.1496 13.1901 46.9709 13.4751 46.8543 13.787C46.7376 14.0989 46.6854 14.4312 46.7009 14.7638V25.8341C46.6854 26.1667 46.7376 26.499 46.8543 26.8109C46.9709 27.1228 47.1496 27.4078 47.3795 27.6487C47.6094 27.8895 47.8859 28.0812 48.192 28.2122C48.4982 28.3432 48.8277 28.4108 49.1607 28.4108C49.4936 28.4108 49.8232 28.3432 50.1293 28.2122C50.4354 28.0812 50.7118 27.8895 50.9417 27.6487C51.1717 27.4078 51.3504 27.1228 51.467 26.8109C51.5837 26.499 51.6359 26.1667 51.6204 25.8341Z" fill="#3F3F3F"/>
</g>
<defs>
<clipPath id="clip0_434_529">
<rect width="132.153" height="150" fill="white"/>
</clipPath>
</defs>
</svg>
