<svg xmlns="http://www.w3.org/2000/svg" xmlns:xlink="http://www.w3.org/1999/xlink" width="48" height="41" viewBox="0 0 48 41">
  <defs>
    <clipPath id="clip-path">
      <rect id="Rectangle_1038" data-name="Rectangle 1038" width="48" height="41" transform="translate(165 360)" fill="#fff" stroke="#707070" stroke-width="1"/>
    </clipPath>
  </defs>
  <g id="Mask_Group_24" data-name="Mask Group 24" transform="translate(-165 -360)" clip-path="url(#clip-path)">
    <g id="_23-23" data-name="23-23" transform="translate(138 330)">
      <path id="Path_852" data-name="Path 852" d="M44.809,64.32c1.685,5.29,4.145,8.489,3.6,13.967S46.458,85.5,44.705,89.452s-1.352,7.66-1.455,8.777" transform="translate(-6.181 -17.758)" fill="none" stroke="#231f20" stroke-linecap="round" stroke-linejoin="round" stroke-width="1.8"/>
      <path id="Path_853" data-name="Path 853" d="M92.413,64.59c-1.681,5.29-4.141,8.489-3.6,13.967s1.955,7.209,3.708,11.165,1.352,7.66,1.455,8.777" transform="translate(-31.172 -17.906)" fill="none" stroke="#231f20" stroke-linecap="round" stroke-linejoin="round" stroke-width="1.8"/>
      <path id="Path_854" data-name="Path 854" d="M81.58,32s.135,2.893,1.775,3.42,3.352,0,5.258.523a7.52,7.52,0,0,1,4.537,4.276,38.2,38.2,0,0,1,1.32,7.75l.77,8.795" transform="translate(-27.241)" fill="none" stroke="#231f20" stroke-linecap="round" stroke-linejoin="round" stroke-width="1.8"/>
      <path id="Path_855" data-name="Path 855" d="M45.575,32s-.131,2.893-1.775,3.42-3.352,0-5.258.523a7.52,7.52,0,0,0-4.537,4.276,38.521,38.521,0,0,0-1.32,7.75L32,56.754" fill="none" stroke="#231f20" stroke-linecap="round" stroke-linejoin="round" stroke-width="1.8"/>
      <line id="Line_215" data-name="Line 215" y2="25.439" transform="translate(49.977 42.458)" fill="none" stroke="#231f20" stroke-linecap="round" stroke-linejoin="round" stroke-width="1"/>
      <path id="Path_856" data-name="Path 856" d="M80.27,49.43s0,4.325,3.194,6.758" transform="translate(-26.521 -9.577)" fill="none" stroke="#231f20" stroke-linecap="round" stroke-linejoin="round" stroke-width="1"/>
      <path id="Path_857" data-name="Path 857" d="M59.64,49.43s0,4.325-3.19,6.758" transform="translate(-13.434 -9.577)" fill="none" stroke="#231f20" stroke-linecap="round" stroke-linejoin="round" stroke-width="1"/>
    </g>
  </g>
</svg>
