<svg xmlns="http://www.w3.org/2000/svg" width="32.47" height="43.998" viewBox="0 0 32.47 43.998">
  <g id="_21_acne" data-name="21_acne" transform="translate(-43.174 -19.39)">
    <path id="Path_891" data-name="Path 891" d="M73.66,103.234s3.131-3.494,7.028,0" transform="translate(-17.649 -48.553)" fill="none" stroke="#231f20" stroke-linecap="round" stroke-linejoin="round" stroke-width="1.8"/>
    <path id="Path_892" data-name="Path 892" d="M53.2,59.371a5.863,5.863,0,0,1,2.05-3.78c1.812-1.787,5.338-1.824,7.843-2.421a10.1,10.1,0,0,0,5.85-4.369A8.343,8.343,0,0,0,71,52.246c1.5,1.412,3.078,1.965,4.119,3.228a6.169,6.169,0,0,1,1.372,3.607" transform="translate(-5.443 -17.007)" fill="none" stroke="#231f20" stroke-linecap="round" stroke-linejoin="round" stroke-width="1.8"/>
    <path id="Path_893" data-name="Path 893" d="M76.52,93v1.21a11.652,11.652,0,0,1-11.652,11.652h0A11.652,11.652,0,0,1,53.2,94.21V93.4" transform="translate(-5.443 -43.374)" fill="none" stroke="#231f20" stroke-linecap="round" stroke-linejoin="round" stroke-width="1.8"/>
    <path id="Path_894" data-name="Path 894" d="M76.165,49.3V45.147A14.617,14.617,0,0,0,61.547,30.53h0A14.617,14.617,0,0,0,46.93,45.147v4.035" transform="translate(-1.703 -6.109)" fill="none" stroke="#231f20" stroke-linecap="round" stroke-linejoin="round" stroke-width="1.8"/>
    <path id="Path_895" data-name="Path 895" d="M111.1,74.3a3.866,3.866,0,0,1,2.937,1.069c1.065,1.3.585,3.8,0,4.571a7.194,7.194,0,0,1-3.034,1.9" transform="translate(-39.923 -32.218)" fill="none" stroke="#231f20" stroke-linecap="round" stroke-linejoin="round" stroke-width="1.8"/>
    <path id="Path_896" data-name="Path 896" d="M47.644,75.224a3.883,3.883,0,0,0-2.937,1.069c-1.065,1.3-.585,3.8,0,4.571a7.157,7.157,0,0,0,3.05,1.933" transform="translate(0 -32.768)" fill="none" stroke="#231f20" stroke-linecap="round" stroke-linejoin="round" stroke-width="1.8"/>
    <path id="Path_897" data-name="Path 897" d="M71.84,24.421a4.131,4.131,0,0,1,4.127-4.131h1.114a4.135,4.135,0,0,1,4.131,4.131" transform="translate(-16.563)" fill="none" stroke="#231f20" stroke-linecap="round" stroke-linejoin="round" stroke-width="1.8"/>
    <circle id="Ellipse_302" data-name="Ellipse 302" cx="0.512" cy="0.512" r="0.512" transform="translate(50.617 48.968)" fill="#231f20"/>
    <circle id="Ellipse_303" data-name="Ellipse 303" cx="0.512" cy="0.512" r="0.512" transform="translate(66.901 49.125)" fill="#231f20"/>
    <circle id="Ellipse_304" data-name="Ellipse 304" cx="0.512" cy="0.512" r="0.512" transform="translate(53.566 50.312)" fill="#231f20"/>
    <circle id="Ellipse_305" data-name="Ellipse 305" cx="0.512" cy="0.512" r="0.512" transform="translate(63.73 49.497)" fill="#231f20"/>
    <circle id="Ellipse_306" data-name="Ellipse 306" cx="0.512" cy="0.512" r="0.512" transform="translate(51.642 52.615)" fill="#231f20"/>
    <circle id="Ellipse_307" data-name="Ellipse 307" cx="0.512" cy="0.512" r="0.512" transform="translate(66.384 53.64)" fill="#231f20"/>
    <circle id="Ellipse_308" data-name="Ellipse 308" cx="0.512" cy="0.512" r="0.512" transform="translate(64.944 56.053)" fill="#231f20"/>
    <circle id="Ellipse_309" data-name="Ellipse 309" cx="0.512" cy="0.512" r="0.512" transform="translate(52.542 54.681)" fill="#231f20"/>
    <circle id="Ellipse_310" data-name="Ellipse 310" cx="0.512" cy="0.512" r="0.512" transform="translate(54.765 57.078)" fill="#231f20"/>
    <circle id="Ellipse_311" data-name="Ellipse 311" cx="0.512" cy="0.512" r="0.512" transform="translate(60.873 58.792)" fill="#231f20"/>
    <circle id="Ellipse_312" data-name="Ellipse 312" cx="0.512" cy="0.512" r="0.512" transform="translate(64.944 52.103)" fill="#231f20"/>
    <ellipse id="Ellipse_313" data-name="Ellipse 313" cx="0.944" cy="1.178" rx="0.944" ry="1.178" transform="translate(53.571 44.034)" fill="#231f20"/>
    <ellipse id="Ellipse_314" data-name="Ellipse 314" cx="0.944" cy="1.178" rx="0.944" ry="1.178" transform="translate(63.06 44.034)" fill="#231f20"/>
  </g>
</svg>
