<svg xmlns="http://www.w3.org/2000/svg" width="13.339" height="15.768" viewBox="0 0 13.339 15.768">
  <path id="Path_617" data-name="Path 617" d="M158.437,74.477H147.764V87.423l5.337-5.118.927.886,4.41,4.232Zm.125-1.334a1.157,1.157,0,0,1,.459.093,1.178,1.178,0,0,1,.547.427,1.1,1.1,0,0,1,.2.646V87.745a1.1,1.1,0,0,1-.2.646,1.211,1.211,0,0,1-1.006.51,1.237,1.237,0,0,1-.865-.334l-4.6-4.42-4.6,4.42a1.24,1.24,0,0,1-.865.344,1.157,1.157,0,0,1-.459-.093,1.178,1.178,0,0,1-.547-.427,1.1,1.1,0,0,1-.2-.646V74.309a1.1,1.1,0,0,1,.2-.646,1.178,1.178,0,0,1,.547-.427,1.157,1.157,0,0,1,.459-.093h10.923Z" transform="translate(-146.432 -73.143)" fill="#911d7a"/>
</svg>
