<svg width="27" height="36" viewBox="0 0 27 36" fill="none" xmlns="http://www.w3.org/2000/svg">
<path fill-rule="evenodd" clip-rule="evenodd" d="M20.8579 4.2844C15.9957 3.46929 11.0043 3.46929 6.14218 4.2844C5.22719 4.4378 4.50045 5.14079 4.31806 6.04629C2.65854 14.285 2.56799 22.7628 4.05116 31.0351L4.35782 32.7454L11.2401 26.2073C12.5065 25.0042 14.4935 25.0042 15.76 26.2073L22.6422 32.7454L22.9489 31.0351C24.432 22.7628 24.3415 14.285 22.682 6.04629C22.4996 5.14079 21.7729 4.4378 20.8579 4.2844ZM5.67717 1.51061C10.8471 0.643883 16.1529 0.643883 21.3229 1.51061C23.3839 1.85614 25.0256 3.43829 25.4391 5.49093C27.1685 14.0764 27.2628 22.911 25.7172 31.5315L25.3019 33.8477C24.9534 35.7918 22.5833 36.5688 21.1514 35.2084L13.8229 28.2464C13.6419 28.0745 13.3581 28.0745 13.1772 28.2464L5.84867 35.2084C4.41673 36.5688 2.04666 35.7918 1.69809 33.8477L1.28281 31.5315C-0.262789 22.911 -0.16843 14.0764 1.56094 5.49093C1.9744 3.43829 3.61614 1.85614 5.67717 1.51061Z" fill="black"/>
</svg>
