<svg id="bookmark-outline" xmlns="http://www.w3.org/2000/svg" width="12" height="14.095" viewBox="0 0 12 14.095">
  <path id="Path_784" data-name="Path 784" d="M157.232,74.336h-9.6V85.908l4.8-4.575.834.792,3.967,3.783Zm.113-1.193a1.047,1.047,0,0,1,.413.083,1.059,1.059,0,0,1,.492.382.982.982,0,0,1,.182.577V86.2a.982.982,0,0,1-.182.577,1.092,1.092,0,0,1-.9.456,1.117,1.117,0,0,1-.778-.3l-4.135-3.951L148.3,86.93a1.12,1.12,0,0,1-.778.308,1.047,1.047,0,0,1-.413-.083,1.058,1.058,0,0,1-.492-.382.982.982,0,0,1-.182-.577V74.185a.982.982,0,0,1,.182-.577,1.059,1.059,0,0,1,.492-.382,1.047,1.047,0,0,1,.413-.083h9.826Z" transform="translate(-146.432 -73.143)" fill="#3f3f3f"/>
</svg>
