<svg xmlns="http://www.w3.org/2000/svg" width="19.961" height="44.364" viewBox="0 0 19.961 44.364">
  <path id="icon-14" d="M6.382,41.708H5.328A1.82,1.82,0,0,0,3.5,43.536h0a1.828,1.828,0,0,0,1.828,1.828H20.633a1.828,1.828,0,0,0,1.828-1.828h0a1.82,1.82,0,0,0-1.828-1.828H19.555V11.534a6.587,6.587,0,0,0-4.528-6.241h0V4.058A2.042,2.042,0,0,0,12.968,2h0a2.042,2.042,0,0,0-2.034,2.058V5.293h0a6.587,6.587,0,0,0-4.553,6.241Z" transform="translate(-3 -1.5)" fill="#fff" stroke="#404040" stroke-linecap="round" stroke-linejoin="round" stroke-width="1"/>
</svg>
