<svg xmlns="http://www.w3.org/2000/svg" width="41.906" height="54.5" viewBox="0 0 41.906 54.5">
  <g id="icon-09" transform="translate(-7.94 -7.52)">
    <rect id="Rectangle_987" data-name="Rectangle 987" width="2.966" height="7.65" rx="1.08" transform="translate(27.417 11.766)" fill="#fff" stroke="#40403f" stroke-miterlimit="10" stroke-width="0.5"/>
    <rect id="Rectangle_988" data-name="Rectangle 988" width="2.966" height="7.65" rx="1.08" transform="translate(27.417 54.12)" fill="#fff" stroke="#40403f" stroke-miterlimit="10" stroke-width="0.5"/>
    <rect id="Rectangle_989" data-name="Rectangle 989" width="41.406" height="4.944" rx="1.8" transform="translate(8.19 7.77)" fill="#fff" stroke="#404040" stroke-linecap="round" stroke-linejoin="round" stroke-width="0.5"/>
    <rect id="Rectangle_990" data-name="Rectangle 990" width="44.496" height="5.933" rx="2.16" transform="translate(31.867 14.39) rotate(90)" fill="#fff" stroke="#404040" stroke-linecap="round" stroke-linejoin="round" stroke-width="0.5"/>
    <g id="Group_1553" data-name="Group 1553">
      <ellipse id="Ellipse_271" data-name="Ellipse 271" cx="4.175" cy="1.566" rx="4.175" ry="1.566" transform="translate(24.726 17.328)" fill="#fff" stroke="#404040" stroke-miterlimit="10" stroke-width="0.5"/>
      <ellipse id="Ellipse_272" data-name="Ellipse 272" cx="4.175" cy="1.566" rx="4.175" ry="1.566" transform="translate(24.726 18.908)" fill="#fff" stroke="#404040" stroke-miterlimit="10" stroke-width="0.5"/>
      <ellipse id="Ellipse_273" data-name="Ellipse 273" cx="4.175" cy="1.566" rx="4.175" ry="1.566" transform="translate(24.726 20.473)" fill="#fff" stroke="#404040" stroke-miterlimit="10" stroke-width="0.5"/>
      <ellipse id="Ellipse_274" data-name="Ellipse 274" cx="4.175" cy="1.566" rx="4.175" ry="1.566" transform="translate(24.726 22.039)" fill="#fff" stroke="#404040" stroke-miterlimit="10" stroke-width="0.5"/>
      <ellipse id="Ellipse_275" data-name="Ellipse 275" cx="4.175" cy="1.566" rx="4.175" ry="1.566" transform="translate(24.726 23.605)" fill="#fff" stroke="#404040" stroke-miterlimit="10" stroke-width="0.5"/>
      <ellipse id="Ellipse_276" data-name="Ellipse 276" cx="4.175" cy="1.566" rx="4.175" ry="1.566" transform="translate(24.726 25.17)" fill="#fff" stroke="#404040" stroke-miterlimit="10" stroke-width="0.5"/>
      <ellipse id="Ellipse_277" data-name="Ellipse 277" cx="4.175" cy="1.566" rx="4.175" ry="1.566" transform="translate(24.726 26.75)" fill="#fff" stroke="#404040" stroke-miterlimit="10" stroke-width="0.5"/>
      <ellipse id="Ellipse_278" data-name="Ellipse 278" cx="4.175" cy="1.566" rx="4.175" ry="1.566" transform="translate(24.726 28.315)" fill="#fff" stroke="#404040" stroke-miterlimit="10" stroke-width="0.5"/>
      <ellipse id="Ellipse_279" data-name="Ellipse 279" cx="4.175" cy="1.566" rx="4.175" ry="1.566" transform="translate(24.726 29.881)" fill="#fff" stroke="#404040" stroke-miterlimit="10" stroke-width="0.5"/>
      <ellipse id="Ellipse_280" data-name="Ellipse 280" cx="4.175" cy="1.566" rx="4.175" ry="1.566" transform="translate(24.726 31.447)" fill="#fff" stroke="#404040" stroke-miterlimit="10" stroke-width="0.5"/>
      <ellipse id="Ellipse_281" data-name="Ellipse 281" cx="4.175" cy="1.566" rx="4.175" ry="1.566" transform="translate(24.726 33.012)" fill="#fff" stroke="#404040" stroke-miterlimit="10" stroke-width="0.5"/>
      <ellipse id="Ellipse_282" data-name="Ellipse 282" cx="4.175" cy="1.566" rx="4.175" ry="1.566" transform="translate(24.726 34.591)" fill="#fff" stroke="#404040" stroke-miterlimit="10" stroke-width="0.5"/>
      <ellipse id="Ellipse_283" data-name="Ellipse 283" cx="4.175" cy="1.566" rx="4.175" ry="1.566" transform="translate(24.726 36.157)" fill="#fff" stroke="#404040" stroke-miterlimit="10" stroke-width="0.5"/>
      <ellipse id="Ellipse_284" data-name="Ellipse 284" cx="4.175" cy="1.566" rx="4.175" ry="1.566" transform="translate(24.726 37.723)" fill="#fff" stroke="#404040" stroke-miterlimit="10" stroke-width="0.5"/>
      <ellipse id="Ellipse_285" data-name="Ellipse 285" cx="4.175" cy="1.566" rx="4.175" ry="1.566" transform="translate(24.726 39.288)" fill="#fff" stroke="#404040" stroke-miterlimit="10" stroke-width="0.5"/>
      <ellipse id="Ellipse_286" data-name="Ellipse 286" cx="4.175" cy="1.566" rx="4.175" ry="1.566" transform="translate(24.726 40.854)" fill="#fff" stroke="#404040" stroke-miterlimit="10" stroke-width="0.5"/>
      <ellipse id="Ellipse_287" data-name="Ellipse 287" cx="4.175" cy="1.566" rx="4.175" ry="1.566" transform="translate(24.726 42.433)" fill="#fff" stroke="#404040" stroke-miterlimit="10" stroke-width="0.5"/>
      <ellipse id="Ellipse_288" data-name="Ellipse 288" cx="4.175" cy="1.566" rx="4.175" ry="1.566" transform="translate(24.726 43.999)" fill="#fff" stroke="#404040" stroke-miterlimit="10" stroke-width="0.5"/>
      <ellipse id="Ellipse_289" data-name="Ellipse 289" cx="4.175" cy="1.566" rx="4.175" ry="1.566" transform="translate(24.726 45.565)" fill="#fff" stroke="#404040" stroke-miterlimit="10" stroke-width="0.5"/>
      <ellipse id="Ellipse_290" data-name="Ellipse 290" cx="4.175" cy="1.566" rx="4.175" ry="1.566" transform="translate(24.726 47.13)" fill="#fff" stroke="#404040" stroke-miterlimit="10" stroke-width="0.5"/>
      <ellipse id="Ellipse_291" data-name="Ellipse 291" cx="4.175" cy="1.566" rx="4.175" ry="1.566" transform="translate(24.726 48.696)" fill="#fff" stroke="#404040" stroke-miterlimit="10" stroke-width="0.5"/>
      <ellipse id="Ellipse_292" data-name="Ellipse 292" cx="4.175" cy="1.566" rx="4.175" ry="1.566" transform="translate(24.726 50.275)" fill="#fff" stroke="#404040" stroke-miterlimit="10" stroke-width="0.5"/>
      <ellipse id="Ellipse_293" data-name="Ellipse 293" cx="4.175" cy="1.566" rx="4.175" ry="1.566" transform="translate(24.726 51.841)" fill="#fff" stroke="#404040" stroke-miterlimit="10" stroke-width="0.5"/>
      <path id="Path_833" data-name="Path 833" d="M28.021,43.348a7.251,7.251,0,0,0-3.626-.783,7.224,7.224,0,0,0-3.612.783h0a1,1,0,0,1-.563-.783C20.22,41.7,22.088,41,24.409,41s4.12.7,4.12,1.566a1,1,0,0,1-.563.783" transform="translate(4.491 12.406)" fill="#fff" stroke="#404040" stroke-linecap="round" stroke-linejoin="round" stroke-width="0.5"/>
    </g>
  </g>
</svg>
