<svg xmlns="http://www.w3.org/2000/svg" width="36.685" height="38.13" viewBox="0 0 36.685 38.13">
  <g id="stomach" transform="translate(-9.701)">
    <path id="Path_623" data-name="Path 623" d="M246.759,314.611a.745.745,0,0,0-.745.745v1.2a.745.745,0,0,0,1.489,0v-1.2A.745.745,0,0,0,246.759,314.611Z" transform="translate(-218.714 -291.181)"/>
    <path id="Path_624" data-name="Path 624" d="M46.207,7.37a.745.745,0,0,0-.877-.191L41.655,8.871A26.116,26.116,0,0,0,42.081.652.745.745,0,0,0,41.342,0h-13.3a.745.745,0,1,0,0,1.489H40.673a28.441,28.441,0,0,1-.662,8.091L40,9.633l-2.366,1.09L31.1,8.857l-.044-.011a14.475,14.475,0,0,0-6.027,0l-.044.011-6.532,1.866L16.086,9.632l-.014-.078a28.367,28.367,0,0,1-.656-8.065h5.561a.745.745,0,1,0,0-1.489H14.748a.745.745,0,0,0-.739.652,26.083,26.083,0,0,0,.424,8.22L10.757,7.178a.745.745,0,0,0-.933,1.087l3.639,5.505-.937,2.622a.745.745,0,0,0,.29.872l2.263,1.5a19.779,19.779,0,0,1-.949,3.532,53.37,53.37,0,0,0-1.595,5.123c0,.011-.006.023-.009.034A40.336,40.336,0,0,0,11.2,37.386a.745.745,0,0,0,.745.745h32.19a.745.745,0,0,0,.745-.745,44.159,44.159,0,0,0-2.927-15.092,19.644,19.644,0,0,1-.948-3.533l2.262-1.5a.745.745,0,0,0,.29-.872l-.937-2.622,3.639-5.505a.745.745,0,0,0-.056-.9Zm-31.3,5.89-2.4-3.635,2.6,1.2h0L17.6,11.97l-.326,3.347a.745.745,0,0,0,.108.465l2.859,4.61-3.947-2.612-.023-.015-2.147-1.42.866-2.423A.745.745,0,0,0,14.911,13.26ZM12.7,36.641a38.819,38.819,0,0,1,1.061-7.976,35.686,35.686,0,0,0,14.282,2.887,35.681,35.681,0,0,0,14.281-2.888,38.808,38.808,0,0,1,1.06,7.976ZM40.558,22.805q.816,2.227,1.4,4.393a34.1,34.1,0,0,1-13.911,2.865A34.1,34.1,0,0,1,14.132,27.2q.582-2.164,1.4-4.393a21.641,21.641,0,0,0,.9-3.152l5.828,3.857A.745.745,0,0,0,23.3,22.5l-4.52-7.286.3-3.118,6.288-1.8a12.941,12.941,0,0,1,5.341,0l6.29,1.8.3,3.118L32.786,22.5A.745.745,0,0,0,33.83,23.51l5.829-3.857A21.5,21.5,0,0,0,40.558,22.805Zm.618-9.546a.745.745,0,0,0-.08.661l.865,2.423L35.847,20.39l2.86-4.608a.745.745,0,0,0,.108-.465l-.326-3.347,5.09-2.345Z" transform="translate(0 0)"/>
    <path id="Path_625" data-name="Path 625" d="M196.758,1.489h0a.745.745,0,1,0-.747-.745A.744.744,0,0,0,196.76,1.489Z" transform="translate(-172.437)"/>
  </g>
</svg>
