<svg xmlns="http://www.w3.org/2000/svg" width="6" height="6" viewBox="0 0 6 6">
  <g id="Path_947" data-name="Path 947" fill="#fff">
    <path d="M 3 5.5 C 1.621500015258789 5.5 0.5 4.378499984741211 0.5 3 C 0.5 1.621500015258789 1.621500015258789 0.5 3 0.5 C 4.378499984741211 0.5 5.5 1.621500015258789 5.5 3 C 5.5 3.509599924087524 5.342050075531006 3.962160110473633 4.954830169677734 4.562049865722656 L 4.949059963226318 4.570990085601807 L 4.94366979598999 4.580160140991211 C 4.67834997177124 5.032310009002686 3.878789901733398 5.5 3 5.5 Z" stroke="none"/>
    <path d="M 3 1 C 1.897200107574463 1 1 1.897200107574463 1 3 C 1 4.102799892425537 1.897200107574463 5 3 5 C 3.729209899902344 5 4.34689998626709 4.609220027923584 4.512430191040039 4.327119827270508 L 4.534739971160889 4.290889739990234 C 4.92087984085083 3.692679882049561 5 3.342200040817261 5 3 C 5 1.897200107574463 4.102799892425537 1 3 1 M 3 0 C 4.65684986114502 0 6 1.34315013885498 6 3 C 6 3.578239917755127 5.836400032043457 4.118269920349121 5.3749098777771 4.833209991455078 C 5.024270057678223 5.430769920349121 4.078609943389893 6 3 6 C 1.34315013885498 6 0 4.65684986114502 0 3 C 0 1.34315013885498 1.34315013885498 0 3 0 Z" stroke="none" fill="#707070"/>
  </g>
</svg>
