<svg width="20" height="20" viewBox="0 0 20 20" fill="none" xmlns="http://www.w3.org/2000/svg">
<path d="M18.959 1.03799C19.2883 1.36401 19.5502 1.7544 19.729 2.18598C19.9078 2.61756 20 3.0815 20 3.55023C20 4.01895 19.9078 4.4829 19.729 4.91447C19.5502 5.34605 19.2883 5.73645 18.959 6.06247L7.32648 17.6972C6.82966 18.1931 6.22783 18.5651 5.56768 18.7846L2.18425 19.9122C1.76983 20.0538 1.31762 20.0232 0.924994 19.8272C0.532365 19.6311 0.230721 19.2852 0.0850146 18.864C-0.0283382 18.5242 -0.0283382 18.1556 0.0850146 17.8158L1.21404 14.4304C1.4366 13.7652 1.80897 13.1628 2.30108 12.6718L13.9345 1.04079C14.6081 0.373267 15.5093 0 16.4472 0C17.3852 0 18.2863 0.373267 18.9599 1.04079L18.959 1.03799ZM3.46114 13.5184L3.30598 13.6734C2.96925 14.0093 2.71444 14.4214 2.56211 14.8765L1.434 18.2573C1.42012 18.2992 1.41816 18.3442 1.42834 18.3872C1.43852 18.4301 1.46043 18.4692 1.49151 18.5C1.52306 18.5312 1.56235 18.553 1.60514 18.563C1.64793 18.573 1.69259 18.5709 1.73429 18.5569L5.11771 17.4294C5.56982 17.2785 5.9818 17.0229 6.32158 16.6826L6.47674 16.5277L3.46114 13.5184ZM14.0011 2.97946L4.46512 12.5141L7.47707 15.529L17.0131 5.99339L14.0011 2.97946ZM15.0051 1.97605L18.0171 4.9872C18.3866 4.58588 18.5868 4.0519 18.5744 3.50078C18.5619 2.94967 18.3378 2.42573 17.9504 2.04232C17.558 1.65382 17.0366 1.43116 16.4905 1.41887C15.9444 1.40659 15.4139 1.60558 15.0051 1.97605Z" fill="#911D7A"/>
</svg>
