<svg xmlns="http://www.w3.org/2000/svg" width="32.255" height="44.445" viewBox="0 0 32.255 44.445">
  <g id="Group_1584" data-name="Group 1584" transform="translate(-173 -471)">
    <g id="_22_pad" data-name="22_pad" transform="translate(139.091 464.892)">
      <path id="Path_878" data-name="Path 878" d="M50.968,50.553a8.529,8.529,0,0,1-7.947-5.873c-.448-1.463-.843-2.941-1.215-4.426-.119-.467-.313-.661-.789-.626-.413.028-.833-.019-1.253-.025a3.17,3.17,0,0,1-3.132-2.343q-1.322-4.921-2.6-9.854A3.334,3.334,0,0,1,35.638,23.6c1.475-.94,1.457-.924,1.027-2.587a38.437,38.437,0,0,1-.974-4.241A8.163,8.163,0,0,1,40.7,8.2a42.549,42.549,0,0,1,7.59-2,8.175,8.175,0,0,1,8.77,5.735c.445,1.463.846,2.941,1.215,4.423.119.47.313.683.789.626a3.357,3.357,0,0,1,.47,0c2.568,0,3.467.72,4.122,3.211.774,2.935,1.566,5.867,2.327,8.8a3.353,3.353,0,0,1-1.757,4.2c-1.275.761-1.253.755-.9,2.177a28.93,28.93,0,0,1,1.056,4.7,8.212,8.212,0,0,1-6.158,8.792c-1.964.579-3.962,1.049-5.951,1.547a10.081,10.081,0,0,1-1.306.141Zm.047-1.222a1.879,1.879,0,0,0,.232-.025c2.487-.626,5.012-1.074,7.446-1.879a6.933,6.933,0,0,0,4.5-7.624,52.126,52.126,0,0,0-1.356-5.431c-.2-.714-.128-1.19.6-1.507a10.681,10.681,0,0,0,1.281-.739,2.116,2.116,0,0,0,1.165-2.735Q63.66,24.6,62.36,19.834a2.09,2.09,0,0,0-2.168-1.66c-.6-.025-1.2-.078-1.792-.044-.73.047-.98-.341-1.143-.974-.439-1.707-.843-3.446-1.41-5.1a7.076,7.076,0,0,0-8.056-4.633A60.919,60.919,0,0,0,41.63,9.065a7.193,7.193,0,0,0-4.7,7.953c.4,1.8.877,3.577,1.35,5.356.163.626.1,1.034-.526,1.341a13.587,13.587,0,0,0-1.729,1.059,1.939,1.939,0,0,0-.849,2.236c.852,3.264,1.7,6.528,2.578,9.782a2,2,0,0,0,1.879,1.613q1.087.075,2.193.075a.871.871,0,0,1,.971.777c.417,1.657.858,3.314,1.347,4.952a7.27,7.27,0,0,0,6.869,5.118Z"/>
      <path id="Path_880" data-name="Path 880" d="M71.545,47.518a3.72,3.72,0,0,1-2.653,3.759c-2.766.8-5.544,1.566-8.338,2.246a3.615,3.615,0,0,1-4.438-2.681c-.758-2.669-1.46-5.353-2.193-8.034Q51.154,32.408,48.369,22c-.711-2.666.313-4.47,2.969-5.2,2.428-.667,4.886-1.225,7.283-1.983a3.95,3.95,0,0,1,5.106,2.969c1.817,7.026,3.727,14.033,5.6,21.046q1.052,3.95,2.083,7.906a7.4,7.4,0,0,1,.138.786ZM49.321,20.74c.025.135.066.47.153.792q1.807,6.8,3.64,13.607l4.072,15.179a2.556,2.556,0,0,0,3.427,2.008q3.8-1.005,7.59-2.045a2.615,2.615,0,0,0,2-3.58q-2.86-10.747-5.732-21.491c-.661-2.484-1.306-4.968-1.986-7.446a2.494,2.494,0,0,0-2.941-1.948c-2.841.72-5.669,1.5-8.485,2.305A2.473,2.473,0,0,0,49.321,20.74Z" transform="translate(-9.78 -5.846)"/>
      <path id="Path_881" data-name="Path 881" d="M69.573,62.958c-.912.019-1.206-.545-1.381-1.209-.589-2.23-1.165-4.467-1.751-6.7q-1.525-5.795-3.063-11.59c-.379-1.438-.144-1.842,1.306-2.236l5.475-1.485c1.168-.313,1.7-.025,2.011,1.146q2.468,9.284,4.921,18.571c.232.88,0,1.457-.767,1.685-2.139.626-4.3,1.2-6.449,1.785A1.538,1.538,0,0,1,69.573,62.958Zm-5.212-20.4c1.717,6.471,3.4,12.827,5.112,19.264l6.518-1.807L70.87,40.772Z" transform="translate(-20.127 -23.018)"/>
    </g>
    <g id="Group_1565" data-name="Group 1565" transform="translate(0 -1)">
      <ellipse id="Ellipse_267" data-name="Ellipse 267" cx="1.191" cy="1.786" rx="1.191" ry="1.786" transform="translate(185.916 493.836)" fill="#c61825"/>
      <ellipse id="Ellipse_99" data-name="Ellipse 99" cx="2.191" cy="2.191" rx="2.191" ry="2.191" transform="translate(186.488 491.171)" fill="#c61825"/>
      <ellipse id="Ellipse_271" data-name="Ellipse 271" cx="2.191" cy="2.191" rx="2.191" ry="2.191" transform="translate(186.488 494.171)" fill="#c61825"/>
      <ellipse id="Ellipse_272" data-name="Ellipse 272" cx="2.191" cy="2.191" rx="2.191" ry="2.191" transform="translate(188.488 496.171)" fill="#c61825"/>
      <ellipse id="Ellipse_273" data-name="Ellipse 273" cx="2.191" cy="2.191" rx="2.191" ry="2.191" transform="translate(186.488 497.171)" fill="#c61825"/>
      <ellipse id="Ellipse_274" data-name="Ellipse 274" cx="2.191" cy="2.191" rx="2.191" ry="2.191" transform="translate(186.488 499.171)" fill="#c61825"/>
      <ellipse id="Ellipse_275" data-name="Ellipse 275" cx="2.191" cy="2.191" rx="2.191" ry="2.191" transform="translate(187.488 500.171)" fill="#c61825"/>
      <ellipse id="Ellipse_269" data-name="Ellipse 269" cx="2.191" cy="2.191" rx="2.191" ry="2.191" transform="translate(185.488 485.171)" fill="#c61825"/>
      <ellipse id="Ellipse_276" data-name="Ellipse 276" cx="2.191" cy="2.191" rx="2.191" ry="2.191" transform="translate(183.488 483.171)" fill="#c61825"/>
      <ellipse id="Ellipse_277" data-name="Ellipse 277" cx="2.191" cy="2.191" rx="2.191" ry="2.191" transform="translate(185.488 483.171)" fill="#c61825"/>
      <ellipse id="Ellipse_268" data-name="Ellipse 268" cx="1.691" cy="2.191" rx="1.691" ry="2.191" transform="translate(185.106 489.79)" fill="#c61825"/>
      <ellipse id="Ellipse_270" data-name="Ellipse 270" cx="1.691" cy="2.191" rx="1.691" ry="2.191" transform="translate(187.106 488.79)" fill="#c61825"/>
      <ellipse id="Ellipse_278" data-name="Ellipse 278" cx="1.691" cy="2.191" rx="1.691" ry="2.191" transform="translate(188.687 488.446) rotate(14)" fill="#c61825"/>
      <ellipse id="Ellipse_101" data-name="Ellipse 101" cx="1.191" cy="1.191" rx="1.191" ry="1.191" transform="translate(184.725 489.027)" fill="#c61825"/>
    </g>
  </g>
</svg>
