<svg xmlns="http://www.w3.org/2000/svg" width="33.98" height="40.524" viewBox="0 0 33.98 40.524">
  <g id="quarantine" transform="translate(-2.2)">
    <g id="Group_1580" data-name="Group 1580" transform="translate(2.2)">
      <g id="Group_1568" data-name="Group 1568" transform="translate(0)">
        <path id="Path_865" data-name="Path 865" d="M35.546,249.081a.6.6,0,0,0-.594.594V256.3a1.186,1.186,0,0,1-1.187,1.187H4.574A1.186,1.186,0,0,1,3.387,256.3V237.494a.594.594,0,1,0-1.187,0V256.3a2.381,2.381,0,0,0,2.374,2.374h29.19a2.381,2.381,0,0,0,2.374-2.374v-6.625A.588.588,0,0,0,35.546,249.081Z" transform="translate(-2.2 -218.15)"/>
        <path id="Path_866" data-name="Path 866" d="M29.673,12.039a.358.358,0,0,1,.372-.285c.768,0,1.535.032,2.3.063.293-.063.578-.135.855-.19A9.513,9.513,0,0,1,34.96,11.5a.349.349,0,0,1,.214-.166,4.291,4.291,0,0,1,.625-.1,1.626,1.626,0,0,0,.269-.055.039.039,0,0,1,.024-.008.029.029,0,0,0-.008-.024.508.508,0,0,1,.047-.285V6.11a2.381,2.381,0,0,0-2.374-2.374H32.57V1.393A1.4,1.4,0,0,0,31.177,0H29.926a1.4,1.4,0,0,0-1.393,1.393V3.736H26.871V1.393A1.4,1.4,0,0,0,25.478,0H24.227a1.4,1.4,0,0,0-1.393,1.393V3.736H21.172V1.393A1.4,1.4,0,0,0,19.779,0H18.528a1.4,1.4,0,0,0-1.393,1.393V3.736H15.473V1.393A1.4,1.4,0,0,0,14.08,0H12.83a1.4,1.4,0,0,0-1.393,1.393V3.736H9.775V1.393A1.36,1.36,0,0,0,8.405,0H7.155A1.4,1.4,0,0,0,5.762,1.393V3.736H4.574A2.381,2.381,0,0,0,2.2,6.11V16.574a.594.594,0,0,0,1.187,0V12.047H29.641C29.649,12.047,29.657,12.039,29.673,12.039Zm.063-10.646a.21.21,0,0,1,.206-.206h1.251a.21.21,0,0,1,.206.206V7.266a.21.21,0,0,1-.206.206H29.942a.21.21,0,0,1-.206-.206Zm-5.7,0a.21.21,0,0,1,.206-.206h1.251a.21.21,0,0,1,.206.206V7.266a.21.21,0,0,1-.206.206H24.243a.21.21,0,0,1-.206-.206Zm-5.691,0a.21.21,0,0,1,.206-.206H19.8a.21.21,0,0,1,.206.206V7.266a.21.21,0,0,1-.206.206H18.552a.21.21,0,0,1-.206-.206Zm-5.7,0a.21.21,0,0,1,.206-.206H14.1a.21.21,0,0,1,.206.206V7.266a.21.21,0,0,1-.206.206H12.853a.21.21,0,0,1-.206-.206Zm-5.7,0a.21.21,0,0,1,.206-.206H8.405a.21.21,0,0,1,.206.206V7.266a.21.21,0,0,1-.206.206H7.155a.21.21,0,0,1-.206-.206V1.393ZM3.4,6.11A1.186,1.186,0,0,1,4.582,4.923H5.77V7.266A1.4,1.4,0,0,0,7.163,8.659H8.413A1.4,1.4,0,0,0,9.806,7.266V4.923h1.662V7.266a1.4,1.4,0,0,0,1.393,1.393h1.251A1.4,1.4,0,0,0,15.5,7.266V4.923h1.662V7.266A1.4,1.4,0,0,0,18.56,8.659h1.251A1.4,1.4,0,0,0,21.2,7.266V4.923h1.662V7.266a1.4,1.4,0,0,0,1.393,1.393h1.251A1.4,1.4,0,0,0,26.9,7.266V4.923h1.662V7.266a1.4,1.4,0,0,0,1.393,1.393h1.251A1.4,1.4,0,0,0,32.6,7.266V4.923h1.187A1.186,1.186,0,0,1,34.976,6.11v4.749H3.4V6.11Z" transform="translate(-2.2)"/>
      </g>
      <path id="Path_875" data-name="Path 875" d="M0,0H23.946" transform="translate(4.93 19.016)" fill="none" stroke="#000" stroke-linecap="round" stroke-width="1" stroke-dasharray="2 3"/>
      <path id="Path_876" data-name="Path 876" d="M0,0H23.946" transform="translate(4.93 25.589)" fill="none" stroke="#000" stroke-linecap="round" stroke-width="1" stroke-dasharray="2 3"/>
      <path id="Path_877" data-name="Path 877" d="M0,0H23.946" transform="translate(4.93 32.163)" fill="none" stroke="#000" stroke-linecap="round" stroke-width="1" stroke-dasharray="2 3"/>
    </g>
    <g id="Group_1581" data-name="Group 1581" transform="translate(11.809 17.446)">
      <path id="Path_869" data-name="Path 869" d="M114.921,223.367l-2.3-2.319a.349.349,0,0,1,0-.491l.032-.032a.339.339,0,0,1,.483,0l2.3,2.319a.349.349,0,0,1,0,.491l-.032.032A.339.339,0,0,1,114.921,223.367Z" transform="translate(-112.525 -220.425)" fill="#c61825"/>
      <path id="Path_870" data-name="Path 870" d="M112.626,222.945l2.3-2.319a.339.339,0,0,1,.483,0l.032.032a.349.349,0,0,1,0,.491l-2.3,2.319a.339.339,0,0,1-.483,0l-.032-.032A.349.349,0,0,1,112.626,222.945Z" transform="translate(-112.525 -220.517)" fill="#c61825"/>
    </g>
    <g id="Group_1582" data-name="Group 1582" transform="translate(11.512 30.87)">
      <path id="Path_871" data-name="Path 871" d="M200.121,392.967l-2.3-2.319a.349.349,0,0,1,0-.491l.032-.032a.339.339,0,0,1,.483,0l2.3,2.319a.349.349,0,0,1,0,.491l-.032.032A.339.339,0,0,1,200.121,392.967Z" transform="translate(-197.725 -390.025)" fill="#c61825"/>
      <path id="Path_872" data-name="Path 872" d="M197.926,392.545l2.3-2.319a.339.339,0,0,1,.483,0l.032.032a.349.349,0,0,1,0,.491l-2.3,2.319a.339.339,0,0,1-.483,0l-.032-.032A.349.349,0,0,1,197.926,392.545Z" transform="translate(-197.817 -390.117)" fill="#c61825"/>
    </g>
    <g id="Group_1583" data-name="Group 1583" transform="translate(21.635 24.166)">
      <path id="Path_873" data-name="Path 873" d="M309.021,308.267l-2.3-2.319a.349.349,0,0,1,0-.491l.032-.032a.339.339,0,0,1,.483,0l2.3,2.319a.349.349,0,0,1,0,.491l-.032.032A.339.339,0,0,1,309.021,308.267Z" transform="translate(-306.625 -305.325)" fill="#c61825"/>
      <path id="Path_874" data-name="Path 874" d="M306.826,307.845l2.3-2.319a.339.339,0,0,1,.483,0l.032.032a.349.349,0,0,1,0,.491l-2.3,2.319a.339.339,0,0,1-.483,0l-.032-.032A.349.349,0,0,1,306.826,307.845Z" transform="translate(-306.717 -305.417)" fill="#c61825"/>
    </g>
    <line id="Line_232" data-name="Line 232" y1="0.084" x2="32.556" transform="translate(2.746 11.503)" fill="none" stroke="#000" stroke-linejoin="round" stroke-miterlimit="10" stroke-width="1.2"/>
    <line id="Line_233" data-name="Line 233" y2="5.485" transform="translate(35.68 6.102)" fill="none" stroke="#000" stroke-linecap="round" stroke-linejoin="round" stroke-miterlimit="10" stroke-width="1"/>
    <line id="Line_234" data-name="Line 234" y2="18.299" transform="translate(35.553 10.859)" fill="none" stroke="#000" stroke-linecap="round" stroke-linejoin="round" stroke-miterlimit="10" stroke-width="1.2"/>
  </g>
</svg>
