<svg id="Group_1567" data-name="Group 1567" xmlns="http://www.w3.org/2000/svg" width="35.254" height="35.254" viewBox="0 0 35.254 35.254">
  <path id="Path_29" data-name="Path 29" d="M17.626,0A17.635,17.635,0,0,0,0,17.6,17.441,17.441,0,0,0,6.756,31.426v3.044a.737.737,0,0,0,1.474,0V21.712H27.023V34.469a.737.737,0,0,0,1.474,0V31.425A17.44,17.44,0,0,0,35.254,17.6,17.635,17.635,0,0,0,17.626,0ZM28.5,29.5v-7.79h.953a.736.736,0,1,0,0-1.472H5.8a.736.736,0,1,0,0,1.472h.953V29.5A15.95,15.95,0,0,1,1.474,17.6a16.153,16.153,0,0,1,32.306,0A15.949,15.949,0,0,1,28.5,29.5Z"/>
  <path id="Path_30" data-name="Path 30" d="M80.825,134.61a1.268,1.268,0,1,0,1.268-1.268A1.268,1.268,0,0,0,80.825,134.61Z" transform="translate(-66.578 -109.838)"/>
  <path id="Path_31" data-name="Path 31" d="M80.842,186.915a1.265,1.265,0,1,0,2.529,0h0a1.265,1.265,0,0,0-2.529,0Z" transform="translate(-66.592 -152.926)"/>
  <path id="Path_32" data-name="Path 32" d="M109.579,158.528a1.266,1.266,0,1,0,1.266-1.266A1.266,1.266,0,0,0,109.579,158.528Z" transform="translate(-90.264 -129.542)"/>
  <path id="Path_33" data-name="Path 33" d="M128.754,177.669a1.265,1.265,0,1,0,2.531,0h0a1.265,1.265,0,0,0-2.531,0Z" transform="translate(-106.059 -145.309)"/>
  <path id="Path_34" data-name="Path 34" d="M130.01,128.558a1.267,1.267,0,1,0,1.266,1.27A1.267,1.267,0,0,0,130.01,128.558Z" transform="translate(-106.049 -105.897)"/>
  <path id="Path_35" data-name="Path 35" d="M56.879,158.528a1.266,1.266,0,0,0,2.532,0h0a1.266,1.266,0,1,0-2.532,0Z" transform="translate(-46.853 -129.542)"/>
  <path id="Path_36" data-name="Path 36" d="M47.081,72.115a4.636,4.636,0,0,0,3.073,1.5,4.08,4.08,0,0,0,2.914-1.5" transform="translate(-38.782 -59.403)" fill="none" stroke="#000" stroke-linecap="round" stroke-miterlimit="10" stroke-width="2"/>
  <path id="Path_37" data-name="Path 37" d="M121.073,72.115a4.636,4.636,0,0,0,3.073,1.5,4.08,4.08,0,0,0,2.914-1.5" transform="translate(-99.732 -59.403)" fill="none" stroke="#000" stroke-linecap="round" stroke-miterlimit="10" stroke-width="2"/>
</svg>
