<svg xmlns="http://www.w3.org/2000/svg" width="39.679" height="39.679" viewBox="0 0 39.679 39.679">
  <g id="icon-13" transform="translate(-4.15 -3.58)">
    <rect id="Rectangle_997" data-name="Rectangle 997" width="39.179" height="39.179" rx="1.07" transform="translate(4.4 3.83)" fill="rgba(255,255,255,0.5)" stroke="#404040" stroke-linecap="round" stroke-linejoin="round" stroke-width="0.5"/>
    <path id="Path_838" data-name="Path 838" d="M21.358,8.82H32.61A8.08,8.08,0,0,1,40.7,16.9V31.972A8.088,8.088,0,0,1,32.61,40.06H17.538A8.088,8.088,0,0,1,9.45,31.972V20.761" transform="translate(-0.856 -0.846)" fill="#fff" stroke="#404040" stroke-linecap="round" stroke-linejoin="round" stroke-width="1"/>
    <path id="Path_839" data-name="Path 839" d="M21.358,8.82v3.861a8.088,8.088,0,0,1-8.088,8.08H9.45" transform="translate(-0.856 -0.846)" fill="#fff" stroke="#404040" stroke-linecap="round" stroke-linejoin="round" stroke-width="1"/>
    <line id="Line_210" data-name="Line 210" x1="11.95" y2="11.95" transform="translate(8.469 7.899)" fill="#fff"/>
    <line id="Line_211" data-name="Line 211" x1="0.291" y2="0.299" transform="translate(20.128 7.899)" fill="none" stroke="#404040" stroke-linecap="round" stroke-linejoin="round" stroke-width="0.5"/>
    <line id="Line_212" data-name="Line 212" x1="10.463" y2="10.463" transform="translate(9.067 8.796)" fill="none" stroke="#404040" stroke-linecap="round" stroke-linejoin="round" stroke-width="0.5" stroke-dasharray="1.02 1.02"/>
    <line id="Line_213" data-name="Line 213" x1="0.299" y2="0.291" transform="translate(8.469 19.558)" fill="none" stroke="#404040" stroke-linecap="round" stroke-linejoin="round" stroke-width="0.5"/>
  </g>
</svg>
