<svg xmlns="http://www.w3.org/2000/svg" width="41.364" height="41.364" viewBox="0 0 41.364 41.364">
  <g id="icon-17" transform="translate(-2.18 -2.54)">
    <circle id="Ellipse_299" data-name="Ellipse 299" cx="20.182" cy="20.182" r="20.182" transform="translate(2.68 3.04)" fill="none" stroke="#404040" stroke-miterlimit="10" stroke-width="1"/>
    <circle id="Ellipse_300" data-name="Ellipse 300" cx="9.206" cy="9.206" r="9.206" transform="translate(13.656 14.016)" fill="none" stroke="#404040" stroke-miterlimit="10" stroke-width="2"/>
    <rect id="Rectangle_1007" data-name="Rectangle 1007" width="2.444" height="4.579" rx="1.222" transform="translate(21.636 6.466)" fill="#fff" stroke="#414141" stroke-miterlimit="10" stroke-width="0.5"/>
    <rect id="Rectangle_1008" data-name="Rectangle 1008" width="2.444" height="4.579" rx="1.222" transform="matrix(0.94, -0.342, 0.342, 0.94, 15.983, 7.893)" fill="#fff" stroke="#414141" stroke-miterlimit="10" stroke-width="0.5"/>
    <rect id="Rectangle_1009" data-name="Rectangle 1009" width="2.444" height="4.579" rx="1.222" transform="matrix(0.766, -0.643, 0.643, 0.766, 11.16, 11.17)" fill="#fff" stroke="#414141" stroke-miterlimit="10" stroke-width="0.5"/>
    <rect id="Rectangle_1010" data-name="Rectangle 1010" width="2.444" height="4.579" rx="1.222" transform="translate(7.741 15.904) rotate(-60)" fill="#fff" stroke="#414141" stroke-miterlimit="10" stroke-width="0.5"/>
    <rect id="Rectangle_1011" data-name="Rectangle 1011" width="2.444" height="4.579" rx="1.222" transform="translate(6.147 21.514) rotate(-80)" fill="#fff" stroke="#414141" stroke-miterlimit="10" stroke-width="0.5"/>
    <rect id="Rectangle_1012" data-name="Rectangle 1012" width="2.444" height="4.579" rx="1.222" transform="translate(6.575 27.328) rotate(-100)" fill="#fff" stroke="#414141" stroke-miterlimit="10" stroke-width="0.5"/>
    <rect id="Rectangle_1013" data-name="Rectangle 1013" width="2.444" height="4.579" rx="1.222" transform="translate(8.962 32.656) rotate(-120)" fill="#fff" stroke="#414141" stroke-miterlimit="10" stroke-width="0.5"/>
    <rect id="Rectangle_1014" data-name="Rectangle 1014" width="2.444" height="4.579" rx="1.222" transform="matrix(-0.766, -0.643, 0.643, -0.766, 13.023, 36.842)" fill="#fff" stroke="#414141" stroke-miterlimit="10" stroke-width="0.5"/>
    <rect id="Rectangle_1015" data-name="Rectangle 1015" width="2.444" height="4.579" rx="1.222" transform="matrix(-0.94, -0.342, 0.342, -0.94, 18.28, 39.38)" fill="#fff" stroke="#414141" stroke-miterlimit="10" stroke-width="0.5"/>
    <rect id="Rectangle_1016" data-name="Rectangle 1016" width="2.444" height="4.579" rx="1.222" transform="translate(24.088 39.978) rotate(180)" fill="#fff" stroke="#414141" stroke-miterlimit="10" stroke-width="0.5"/>
    <rect id="Rectangle_1017" data-name="Rectangle 1017" width="2.444" height="4.579" rx="1.222" transform="matrix(-0.94, 0.342, -0.342, -0.94, 29.734, 38.543)" fill="#fff" stroke="#414141" stroke-miterlimit="10" stroke-width="0.5"/>
    <rect id="Rectangle_1018" data-name="Rectangle 1018" width="2.444" height="4.579" rx="1.222" transform="matrix(-0.766, 0.643, -0.643, -0.766, 34.563, 35.276)" fill="#fff" stroke="#414141" stroke-miterlimit="10" stroke-width="0.5"/>
    <rect id="Rectangle_1019" data-name="Rectangle 1019" width="2.444" height="4.579" rx="1.222" transform="translate(37.989 30.541) rotate(120)" fill="#fff" stroke="#414141" stroke-miterlimit="10" stroke-width="0.5"/>
    <rect id="Rectangle_1020" data-name="Rectangle 1020" width="2.444" height="4.579" rx="1.222" transform="translate(39.57 24.924) rotate(100)" fill="#fff" stroke="#414141" stroke-miterlimit="10" stroke-width="0.5"/>
    <rect id="Rectangle_1021" data-name="Rectangle 1021" width="2.444" height="4.579" rx="1.222" transform="translate(39.149 19.11) rotate(80)" fill="#fff" stroke="#414141" stroke-miterlimit="10" stroke-width="0.5"/>
    <rect id="Rectangle_1022" data-name="Rectangle 1022" width="2.444" height="4.579" rx="1.222" transform="translate(36.758 13.781) rotate(60)" fill="#fff" stroke="#414141" stroke-miterlimit="10" stroke-width="0.5"/>
    <rect id="Rectangle_1023" data-name="Rectangle 1023" width="2.444" height="4.579" rx="1.222" transform="matrix(0.766, 0.643, -0.643, 0.766, 32.695, 9.603)" fill="#fff" stroke="#414141" stroke-miterlimit="10" stroke-width="0.5"/>
    <rect id="Rectangle_1024" data-name="Rectangle 1024" width="2.444" height="4.579" rx="1.222" transform="matrix(0.94, 0.342, -0.342, 0.94, 27.444, 7.056)" fill="#fff" stroke="#414141" stroke-miterlimit="10" stroke-width="0.5"/>
  </g>
</svg>
