<svg xmlns="http://www.w3.org/2000/svg" xmlns:xlink="http://www.w3.org/1999/xlink" width="198" height="337" viewBox="0 0 198 337">
  <defs>
    <clipPath id="clip-path">
      <rect id="Rectangle_504" data-name="Rectangle 504" width="198" height="337" transform="translate(-8.631 0.236)" fill="#ef8b6f" stroke="#707070" stroke-width="1"/>
    </clipPath>
  </defs>
  <g id="Group_8" data-name="Group 8" transform="translate(8.631 -0.236)" clip-path="url(#clip-path)">
    <g id="Group_933" data-name="Group 933" transform="translate(-2.777 9.152)">
      <path id="Path_121" data-name="Path 121" d="M-1492.931,436.225a17.4,17.4,0,0,1-5.4,10.683,29.569,29.569,0,0,0-5.589,7.876c-1.844,4.167.025,16.244,10.817,18.122s30.115,4.582,36.682,11.152,9.221,16.206,14.766,31.516,12.159,192.206,3.6,198.107-1.941-3-1.941-11.262-8.151-21.642-5.2-29.609-4.188-75.29-9.8-87.686-16.525-48.991-16.822-52.532c0,0-2.654,18.594-1.769,30.693s5.229,28.237,11.327,40.43c0,0-47.922,37.582-47.922,71.548,0,0-5.819-57.246-56.914-61.89,0,0-2.963-5.495.528-13.95,4.695-11.377,6.179-34.032,3.566-47.675s-2.9-17.419-4.066-20.032c0,0-34.207,23.47-27.8-.544s17.857-41.927,25.862-47.265,29.09-6,33.084-13.34c2.123-3.9,6.032-12.784,1.938-18.847-3.354-4.973-6.026-5.9-7.757-10.637a12.277,12.277,0,0,1-1.2-4.86" transform="translate(1605.271 -436.225)" fill="#fdefef" stroke="#1a1818" stroke-linecap="round" stroke-linejoin="round" stroke-width="1"/>
      <path id="Path_122" data-name="Path 122" d="M-1559.977,498.523s-5.429,27.033-6.707,47.553c-1.022,16.412,2.1,27.171,1.751,27.605-1.063,1.294-2.619,3.682-6.13,13.668-2.635,7.508-5.007,20.213-4.916,22.1.234,4.745-22.761-27.124-22.761-58.946,0-13.687,3.2-29.887,9.605-53.9s17.825-39.2,25.142-44.765" transform="translate(1598.74 -403.03)" fill="#fdefef" stroke="#1a1818" stroke-miterlimit="10" stroke-width="1"/>
      <path id="Path_123" data-name="Path 123" d="M-1520.789,491.274s6.72,12.39,12.065,23.014c6.185,12.293,12.156,56.051,1.488,98.019-12.6,49.566-19.11,53.76-17.735,69.97s8.78,26.718,6.189,59.974-13.656,76.306-12.359,86.242,12.956,22.892,17.707,27.643,9.505,17.707.435,22.892-18.576-1.3-22.461-11.23-4.32-20.732-9.5-25.052-7.067-6.045-5.811-9.968,2.195-11.927,2.195-16.478-9.806-78.478-12.447-95.075c0,0-6.036-21.123-5.657-37.72s1.1-91.193,2.247-112.172S-1549.582,495.562-1520.789,491.274Z" transform="translate(1666.847 -319.213)" fill="#fdefef" stroke="#1a1818" stroke-miterlimit="10" stroke-width="1"/>
      <path id="Path_124" data-name="Path 124" d="M-1584.072,493.59s-12.758,27.033-5.273,63.2c8.293,40.039,22.4,97.716,22.9,110.868s-.99,52.932,2.045,69.123,28.315,70.523,27.808,81.15c0,0,2.582,14.781-5.089,21.385s-17.041,15.763-15.122,21.726,11.29,15.3,18.1,14.891,12.142-10.63,12.568-18.726,1.918-17.041,5.113-20.023,2.982-8.733,1.278-11.715-6.176-101.232-4.188-120.711,3.82-120.073,1.91-138.349C-1522.017,566.41-1528.843,493.831-1584.072,493.59Z" transform="translate(1613.706 -314.29)" fill="#fdefef" stroke="#1a1818" stroke-miterlimit="10" stroke-width="1"/>
      <path id="Path_125" data-name="Path 125" d="M-1577.229,488.791a146.682,146.682,0,0,0,53.242,5.689c29.639-2.344,42.6-9.64,42.6-9.64s4.77,15.372,9.261,20.11c0,0-33.919,34.916-43.646,80.059,0,0-7.483,1.247-10.724,0,0,0-19.982-61.884-63.09-69.77,0,0,1.738-6.686,7.545-15.506C-1578.823,494.839-1578.209,491.348-1577.229,488.791Z" transform="translate(1618.189 -332.889)" fill="#ef8b6f" stroke="#1a1818" stroke-miterlimit="10" stroke-width="1"/>
      <path id="Path_126" data-name="Path 126" d="M-1540.65,451.529c6.57,6.57,9.221,16.253,14.766,31.565s22.676,62.628,22.148,78.465-12.943,57.517-12.943,71.389,10.93,23.126,10.042,33.75-7.2,24.136-15.756,30.04-7.989-13.656-7.492-23.883c.544-11.105-6.539-24.042-3.589-32.009s-.141-75.808-5.748-88.2-16.525-48.991-16.822-52.532" transform="translate(1689.497 -403.695)" fill="#fdefef" stroke="#1a1818" stroke-miterlimit="10" stroke-width="1"/>
      <path id="Path_127" data-name="Path 127" d="M-1554,448.688s-.778,17.394,7.639,23.639,16.562,5.445,21.77,4.445c5.157-.991,13.006-2.175,14.365-13.181s1.066-15.681,1.066-15.681l12.562,2.219s-1.075,13.731,4.385,24.151,9.78,15.1,14.147,24.817c4.976,11.083-.994,32.244-4.717,38.082s-3.769,15.891-3.769,15.891-48.463-11.3-90.871,1.11c0,0,.245-16.876-4.622-23.32s-11.662-23.326,0-43.921,13.092-21.107,13.5-33.135A119.262,119.262,0,0,0-1554,448.688Z" transform="translate(1620.541 -411.387)" fill="#ef8b6f" stroke="#1a1818" stroke-miterlimit="10" stroke-width="1"/>
    </g>
  </g>
</svg>
