<svg width="45" height="45" viewBox="0 0 45 45" fill="none" xmlns="http://www.w3.org/2000/svg">
<path fill-rule="evenodd" clip-rule="evenodd" d="M14.5312 14.0625C14.5312 9.66148 18.099 6.09375 22.5 6.09375C26.901 6.09375 30.4688 9.66148 30.4688 14.0625C30.4688 18.4635 26.901 22.0313 22.5 22.0313C18.099 22.0313 14.5312 18.4635 14.5312 14.0625ZM22.5 8.90625C19.6523 8.90625 17.3438 11.2148 17.3438 14.0625C17.3438 16.9102 19.6523 19.2188 22.5 19.2188C25.3477 19.2188 27.6562 16.9102 27.6562 14.0625C27.6562 11.2148 25.3477 8.90625 22.5 8.90625Z" fill="black"/>
<path fill-rule="evenodd" clip-rule="evenodd" d="M15 27.6563C12.67 27.6563 10.7812 29.5451 10.7812 31.875V34.103C10.7812 34.137 10.8058 34.1659 10.8393 34.1713C18.562 35.4322 26.438 35.4322 34.1607 34.1713C34.1942 34.1659 34.2188 34.137 34.2188 34.103V31.875C34.2188 29.545 32.33 27.6563 30 27.6563H29.3609C29.3115 27.6563 29.2623 27.6641 29.2154 27.6794L27.5925 28.2093C24.2835 29.2898 20.7165 29.2898 17.4075 28.2093L15.7846 27.6794C15.7377 27.6641 15.6885 27.6563 15.6391 27.6563H15ZM7.96875 31.875C7.96875 27.9918 11.1167 24.8438 15 24.8438H15.6391C15.9851 24.8438 16.3288 24.8985 16.6576 25.0058L18.2805 25.5357C21.0223 26.431 23.9777 26.431 26.7195 25.5357L28.3424 25.0058C28.6712 24.8985 29.0149 24.8438 29.3609 24.8438H30C33.8833 24.8438 37.0312 27.9917 37.0312 31.875V34.103C37.0312 35.5153 36.0077 36.7195 34.6139 36.9471C26.5911 38.2569 18.4089 38.2569 10.3861 36.9471C8.99228 36.7195 7.96875 35.5153 7.96875 34.103V31.875Z" fill="black"/>
</svg>
