<svg width="187" height="150" viewBox="0 0 187 150" fill="none" xmlns="http://www.w3.org/2000/svg">
<path d="M169.468 97.7773L171.135 101.256C171.514 102.029 172.043 102.718 172.691 103.284C173.338 103.85 174.092 104.281 174.908 104.553C175.725 104.825 176.587 104.932 177.444 104.868C178.302 104.804 179.139 104.57 179.905 104.18C180.675 103.798 181.361 103.267 181.925 102.619C182.489 101.971 182.919 101.217 183.191 100.402C183.462 99.5873 183.57 98.7266 183.508 97.8697C183.446 97.0128 183.215 96.1767 182.829 95.4093L159.236 46.645C158.86 45.87 158.333 45.1781 157.685 44.6099C157.038 44.0416 156.284 43.6086 155.466 43.3362C154.649 43.0638 153.786 42.9576 152.927 43.0237C152.068 43.0899 151.231 43.3271 150.466 43.7214C149.691 44.0975 148.999 44.6247 148.43 45.2721C147.862 45.9194 147.429 46.6739 147.157 47.491C146.884 48.3082 146.778 49.1716 146.844 50.0304C146.91 50.8893 147.148 51.7262 147.542 52.492L149.208 55.971L144.443 58.2806L52.703 102.28C48.2993 104.412 44.6755 107.873 42.3417 112.173C40.0079 116.474 39.0816 121.398 39.6933 126.252L35.7465 128.153C34.8734 128.564 34.0916 129.147 33.4476 129.866C32.8035 130.585 32.3101 131.426 31.9967 132.339C31.6832 133.253 31.5561 134.219 31.6227 135.182C31.6893 136.145 31.9483 137.085 32.3845 137.947C32.7972 138.805 33.3749 139.573 34.0845 140.208C34.7942 140.843 35.6219 141.331 36.5205 141.646C37.4191 141.961 38.3709 142.096 39.3216 142.043C40.2723 141.99 41.2033 141.751 42.0614 141.338L46.0373 139.437C49.4477 142.971 53.8837 145.341 58.7165 146.212C63.5493 147.083 68.5336 146.411 72.963 144.291L164.674 100.087L169.468 97.7773Z" fill="white" stroke="#231F20" stroke-width="2" stroke-linecap="round" stroke-linejoin="round"/>
<path d="M169.469 97.982L171.135 101.461C171.511 102.236 172.038 102.928 172.686 103.496C173.333 104.064 174.088 104.497 174.905 104.77C175.722 105.042 176.585 105.148 177.444 105.082C178.303 105.016 179.14 104.779 179.906 104.385C180.678 104.005 181.367 103.477 181.933 102.829C182.499 102.181 182.931 101.427 183.203 100.611C183.475 99.7948 183.582 98.9328 183.518 98.075C183.454 97.2171 183.22 96.3806 182.829 95.6139L159.236 46.8496C158.857 46.0774 158.329 45.3883 157.681 44.8223C157.033 44.2563 156.279 43.8248 155.463 43.5527C154.647 43.2807 153.785 43.1736 152.927 43.2377C152.069 43.3018 151.233 43.5358 150.466 43.9261C149.694 44.3052 149.005 44.834 148.439 45.4819C147.873 46.1297 147.441 46.8836 147.169 47.6997C146.897 48.5158 146.79 49.3778 146.854 50.2356C146.918 51.0935 147.152 51.93 147.542 52.6967L149.209 56.0879L169.469 97.982Z" fill="#16999F" stroke="#231F20" stroke-width="2" stroke-linecap="round" stroke-linejoin="round"/>
<path d="M43.8447 17.4975C55.185 10.5088 67.6623 5.56147 80.7103 2.87987C92.5798 0.424114 118.716 5.33563 128.802 9.0485C138.888 12.7614 164.557 37.2605 166.516 44.3939C168.474 51.5273 159.938 47.7267 157.365 45.9433C154.792 44.16 130.644 26.8527 123.862 24.2216C117.079 21.5904 94.3924 23.8123 91.235 24.894C88.0776 25.9757 87.6683 32.2613 88.9839 36.2957C89.92 39.5107 91.2975 42.5804 93.0768 45.4171C93.9831 46.8789 112.138 52.7551 120.85 54.1877C131.316 55.7664 141.023 51.5857 145.32 51.7027C153.36 51.9073 158.184 54.6262 158.739 56.0587C159.295 57.4912 158.564 61.1456 151.752 63.923C147.834 65.5309 135.117 72.6935 120.587 71.8457C102.637 70.764 77.5822 64.42 73.1092 63.309C61.4151 60.3855 51.709 57.6666 46.9729 56.7311" fill="white"/>
<path d="M43.8447 17.4975C55.185 10.5088 67.6623 5.56147 80.7103 2.87987C92.5798 0.424114 118.716 5.33563 128.802 9.0485C138.888 12.7614 164.557 37.2605 166.516 44.3939C168.474 51.5273 159.938 47.7267 157.365 45.9433C154.792 44.16 130.644 26.8527 123.862 24.2216C117.079 21.5904 94.3924 23.8123 91.235 24.894C88.0776 25.9757 87.6683 32.2613 88.9839 36.2957C89.92 39.5107 91.2975 42.5804 93.0768 45.4171C93.9831 46.8789 112.138 52.7551 120.85 54.1877C131.316 55.7664 141.023 51.5857 145.32 51.7027C153.36 51.9073 158.184 54.6262 158.739 56.0587C159.295 57.4912 158.564 61.1456 151.752 63.923C147.834 65.5309 135.117 72.6935 120.587 71.8457C102.637 70.764 77.5822 64.42 73.1092 63.309C61.4151 60.3855 51.709 57.6666 46.9729 56.7311" stroke="#231F20" stroke-width="1.5" stroke-linecap="round" stroke-linejoin="round"/>
<path d="M10.4039 93.377L29.5516 99.2425C30.4405 99.4889 31.3905 99.3786 32.1993 98.935C33.008 98.4915 33.6117 97.7498 33.8818 96.8678C34.1519 95.9858 34.067 95.0332 33.6453 94.2129C33.2235 93.3925 32.4982 92.7692 31.6237 92.4757L20.6525 89.1118L39.9852 78.8434C40.8143 78.403 41.4345 77.6513 41.7094 76.7537C41.9842 75.856 41.8913 74.8859 41.4509 74.0568C41.0105 73.2277 40.2588 72.6075 39.3611 72.3326C38.4635 72.0577 37.4934 72.1507 36.6643 72.5911L17.3317 82.8595L20.689 71.8884C20.9639 70.9906 20.8709 70.0203 20.4304 69.191C19.99 68.3617 19.2381 67.7413 18.3402 67.4664C17.4424 67.1914 16.472 67.2844 15.6428 67.7249C14.8135 68.1654 14.1931 68.9173 13.9182 69.8151L8.05529 88.9615C7.78212 89.8585 7.876 90.8272 8.31632 91.655C8.75663 92.4829 9.50742 93.1022 10.4039 93.377Z" fill="black"/>
</svg>
