<svg xmlns="http://www.w3.org/2000/svg" width="212.991" height="260.079" viewBox="0 0 212.991 260.079">
  <g id="Group_1450" data-name="Group 1450" transform="translate(-650.607 615.134)">
    <g id="Blob" transform="translate(650.607 -615.134)">
      <g id="Group_1448" data-name="Group 1448">
        <path id="Path_690" data-name="Path 690" d="M712.916-600.788c-8.492,6.975-4.44,11.58-11.083,25.1-14.74,30.006-45.77,29.866-50.666,49.109-6.12,24.057,39.921,33.935,36.417,63.3-2.347,19.662-23.874,22.607-22.167,39.287,2.208,21.568,40.488,38.979,71.25,44.743,16.534,3.1,87.141,18.035,115.582-24.008,20.9-30.9,10.66-80.075-12.292-106.322-17.535-20.053-37.239-20.719-43.981-42.319-7.3-23.387,11.457-36.521,2.439-51.066C784.006-626.214,725.075-610.775,712.916-600.788Z" transform="translate(-650.607 615.134)" fill="#d54e2d"/>
        <path id="Path_691" data-name="Path 691" d="M664.434-559.694c-8.614,4.076-15.817,15.04-12.336,25.7,3.545,10.85,16.11,15.127,25.7,13.365,11.813-2.169,21.537-13.947,19.533-24.673C694.977-557.9,677.063-565.668,664.434-559.694Z" transform="translate(-650.394 634.17)" fill="#d54e2d"/>
      </g>
    </g>
    <g id="Girl_5" transform="translate(674.61 -605.276)">
      <g id="Group_1449" data-name="Group 1449">
        <path id="Path_692" data-name="Path 692" d="M710.384-502.1c-4.059-.954-5.582-7.575-6.174-10.1-.33-1.407-1.944-8.3,1.684-14.592,3.33-5.782,7.329-4.555,10.1-8.979,5.124-8.179-6.26-17.023-2.245-26.378,4.49-10.46,18.274-6.54,25.255-17.959,6.8-11.124-.92-23.44,5.05-26.938,4.2-2.462,12.621.947,14.592,6.174,2.354,6.242-6.126,10.725-8.979,22.45-1.325,5.442-.589,8.959,4.489,28.622,8.066,31.24,9.138,33.714,7.3,38.162-5.9,14.26-29.919,20.316-35.356,14.592-2.8-2.942-.548-8.858-3.368-10.1C719.422-508.614,715.153-500.98,710.384-502.1Z" transform="translate(-655.726 607.867)" fill="#0e0e0e"/>
        <path id="Path_693" data-name="Path 693" d="M716.182-481.7l34.9-.672q-.169,12.752-.336,25.506l15.774,17.451q7.382-7.382,14.766-14.766c13.929-8.653,17.387-7.8,18.459-6.712,3.06,3.1-5.4,16.142-9.732,22.821a167.249,167.249,0,0,1-25.171,30.2l-51.012,2.013c-20.321-9.143-30.52-21.446-35.574-29.2-7.08-10.859-12.077-25.073-9.062-27.184,1.636-1.145,5.324,1.285,18.795,11.41,7,5.263,13.08,9.3,17.451,12.081l14.431-17.787Z" transform="translate(-668.301 652.613)" fill="#232323"/>
        <path id="Path_694" data-name="Path 694" d="M705.746-513.771c5.764-2.113,9.223,5,18.13,4.972,9.95-.034,14.233-8.944,20.47-6.727,1.754.624,4.144,2.3,6.726,9.651,4.12,11.736,3.553,23.206.715,41.224-2.172,13.788-3.258,20.681-5.54,28.492-5.91,20.232-17.566,44.962-23.017,43.6-2.333-.583-3.362-5.831-2.808-9.6.8-5.46,5.62-7.108,9.6-11.7,3.945-4.559,4.946-11.295,6.788-24.578a224.794,224.794,0,0,0,2.107-29.258l-28.322-.233a196.023,196.023,0,0,0,2.02,23.011c2.073,14.058,3.108,21.086,6.64,26.845,7.715,12.577,19.917,14.488,18.959,21.3-.442,3.146-3.452,6.16-6.32,6.32-5.171.289-9.442-8.723-15.682-22.237a242.509,242.509,0,0,1-11.47-30.194c-2.857-9.151-4.862-15.575-6.554-24.811-3.465-18.918-1.7-28.294,0-33.938C699.78-506.921,701.447-512.194,705.746-513.771Z" transform="translate(-658.355 640.665)" fill="rgba(0,69,255,0.78)"/>
        <path id="Path_695" data-name="Path 695" d="M709.512-520.6c-5.266-9.165,2.2-25.86,7.252-25.846,2.759.007,2.8,5.034,8.88,8.157,4.566,2.344,7.4.978,8.518,3.067,1.209,2.265-1.366,5.946-6.174,13.469-3.532,5.528-4.055,4.882-4.66,7.012-1.9,6.715,4.057,10.406,2.04,16.608-1.167,3.583-4.549,6.627-6.7,6.118-3.017-.712-3.684-8.4-3.788-9.907-.407-5.885.952-7.423-.292-11.362C713.369-517.147,711.283-517.522,709.512-520.6Z" transform="translate(-654.249 629.766)" fill="#eee4da"/>
      </g>
    </g>
  </g>
</svg>
