<svg xmlns="http://www.w3.org/2000/svg" width="20.525" height="21.206" viewBox="0 0 20.525 21.206">
  <g id="book" transform="translate(-8.225)">
    <g id="Group_1030" data-name="Group 1030" transform="translate(15.752)">
      <g id="Group_1029" data-name="Group 1029">
        <path id="Path_159" data-name="Path 159" d="M202.965,9.919a5.133,5.133,0,0,0-4.789-5.113V2.052a.342.342,0,0,0-.342-.342h-3.762V.342A.342.342,0,0,0,193.73,0h-3.42a.342.342,0,0,0-.342.342v17.1a.342.342,0,0,0,.342.342h5.815v3.078a.342.342,0,0,0,.342.342H199.2a.342.342,0,0,0,.342-.342v-4.1a.342.342,0,0,0-.342-.342h-.342V14.946A5.139,5.139,0,0,0,202.965,9.919Zm-8.893-7.525h3.42V3.42h-3.42Zm0,1.71h3.42v.7a5.112,5.112,0,0,0-3.42,1.637Zm-.684,13h-2.736V.684h2.736V7.37a5.091,5.091,0,0,0,0,5.1Zm2.736-.342V17.1h-2.052V16.076h2.736v.342h-.342A.342.342,0,0,0,196.125,16.76Zm-2.052-1.368v-2a5.124,5.124,0,0,0,2.736,1.551v.445Zm4.788,5.131h-2.052v-.684h2.052Zm0-1.368h-2.052V18.47h2.052Zm0-1.368h-2.052V17.1h2.052Zm-1.368-1.368V15.05h.684v1.368Zm.342-2.052a4.446,4.446,0,1,1,4.447-4.446A4.452,4.452,0,0,1,197.835,14.366Z" transform="translate(-189.968)" fill="#911d7a"/>
      </g>
    </g>
    <g id="Group_1032" data-name="Group 1032" transform="translate(19.857 6.157)">
      <g id="Group_1031" data-name="Group 1031">
        <path id="Path_160" data-name="Path 160" d="M292.827,148.645a3.762,3.762,0,1,0,3.762,3.762A3.767,3.767,0,0,0,292.827,148.645Zm0,6.841a3.078,3.078,0,1,1,3.078-3.078A3.082,3.082,0,0,1,292.827,155.486Z" transform="translate(-289.065 -148.645)" fill="#911d7a"/>
      </g>
    </g>
    <g id="Group_1034" data-name="Group 1034" transform="translate(8.225 3.554)">
      <g id="Group_1033" data-name="Group 1033">
        <path id="Path_161" data-name="Path 161" d="M15.49,86.731l-4-.915a.339.339,0,0,0-.258.044.343.343,0,0,0-.152.214L8.233,98.653a.342.342,0,0,0,.258.409l4,.915a.32.32,0,0,0,.076.009.341.341,0,0,0,.334-.266L15.747,87.14A.342.342,0,0,0,15.49,86.731Zm-3.179,12.5-3.335-.762.35-1.548,3.323.817Zm.488-2.16-3.323-.817,1.73-7.651,3.323.818Zm1.881-8.318-3.323-.818.312-1.378L15,87.322Z" transform="translate(-8.225 -85.807)" fill="#911d7a"/>
      </g>
    </g>
    <g id="Group_1036" data-name="Group 1036" transform="translate(17.121 15.734)">
      <g id="Group_1035" data-name="Group 1035">
        <rect id="Rectangle_530" data-name="Rectangle 530" width="1.368" height="0.684" fill="#911d7a"/>
      </g>
    </g>
    <g id="Group_1038" data-name="Group 1038" transform="translate(17.121 1.368)">
      <g id="Group_1037" data-name="Group 1037">
        <rect id="Rectangle_531" data-name="Rectangle 531" width="1.368" height="0.684" fill="#911d7a"/>
      </g>
    </g>
    <g id="Group_1040" data-name="Group 1040" transform="translate(17.121 2.736)">
      <g id="Group_1039" data-name="Group 1039">
        <rect id="Rectangle_532" data-name="Rectangle 532" width="1.368" height="0.684" fill="#911d7a"/>
      </g>
    </g>
    <g id="Group_1042" data-name="Group 1042" transform="translate(17.121 4.104)">
      <g id="Group_1041" data-name="Group 1041">
        <rect id="Rectangle_533" data-name="Rectangle 533" width="1.368" height="0.684" fill="#911d7a"/>
      </g>
    </g>
  </g>
</svg>
