<svg width="45" height="45" viewBox="0 0 45 45" fill="none" xmlns="http://www.w3.org/2000/svg">
<path fill-rule="evenodd" clip-rule="evenodd" d="M26.972 28.9607C22.0027 32.9407 14.7288 32.6275 10.1223 28.021C5.17976 23.0784 5.17976 15.0649 10.1223 10.1224C15.0649 5.17979 23.0784 5.17979 28.021 10.1224C32.6274 14.7288 32.9407 22.0028 28.9607 26.972L38.6275 36.6388C39.1767 37.188 39.1767 38.0784 38.6275 38.6276C38.0784 39.1767 37.188 39.1767 36.6388 38.6276L26.972 28.9607ZM12.1111 26.0323C8.26685 22.188 8.26685 15.9553 12.1111 12.1111C15.9553 8.26688 22.188 8.26688 26.0322 12.1111C29.8736 15.9525 29.8765 22.1789 26.0407 26.0238C26.0379 26.0266 26.035 26.0294 26.0322 26.0322C26.0294 26.035 26.0266 26.0379 26.0238 26.0407C22.1789 29.8765 15.9525 29.8737 12.1111 26.0323Z" fill="black"/>
</svg>
