<svg xmlns="http://www.w3.org/2000/svg" width="43.307" height="41.908" viewBox="0 0 43.307 41.908">
  <g id="icon-11" transform="translate(-2.372 -3.211)">
    <path id="Path_837" data-name="Path 837" d="M39.28,19.16,16.73,40.75a7,7,0,0,1-9.9.07h0a7,7,0,0,1,.49-9.89L29.87,9.33a1.16,1.16,0,0,1,1.64,0l7.85,8.19a1.18,1.18,0,0,1-.08,1.64Z" fill="#fff" stroke="#404040" stroke-linecap="round" stroke-linejoin="round" stroke-width="1"/>
    <line id="Line_204" data-name="Line 204" y1="3.94" x2="4.12" transform="translate(37.74 11.73)" fill="#fff" stroke="#404040" stroke-miterlimit="10" stroke-width="1.2"/>
    <line id="Line_205" data-name="Line 205" x2="2.64" y2="2.75" transform="translate(16.87 22.42)" fill="#fff" stroke="#404040" stroke-linecap="round" stroke-linejoin="round" stroke-width="1.2"/>
    <line id="Line_206" data-name="Line 206" x1="3.47" y2="3.32" transform="translate(3.22 40.95)" fill="#fff" stroke="#404040" stroke-linecap="round" stroke-linejoin="round" stroke-width="1.2"/>
    <line id="Line_207" data-name="Line 207" x2="2.63" y2="2.75" transform="translate(19.51 19.9)" fill="#fff" stroke="#404040" stroke-linecap="round" stroke-linejoin="round" stroke-width="1.2"/>
    <line id="Line_208" data-name="Line 208" x2="2.63" y2="2.75" transform="translate(22.14 17.37)" fill="#fff" stroke="#404040" stroke-linecap="round" stroke-linejoin="round" stroke-width="1.2"/>
    <line id="Line_209" data-name="Line 209" y1="3.94" x2="4.12" transform="translate(33.44 7.23)" fill="#fff" stroke="#404040" stroke-miterlimit="10" stroke-width="1.2"/>
    <rect id="Rectangle_995" data-name="Rectangle 995" width="13.6" height="1.85" rx="0.92" transform="translate(44.342 14.313) rotate(-133.76)" fill="#404040"/>
    <rect id="Rectangle_996" data-name="Rectangle 996" width="20.02" height="1.85" rx="0.92" transform="translate(41.671 21.608) rotate(-133.76)" fill="#404040"/>
  </g>
</svg>
