<svg xmlns="http://www.w3.org/2000/svg" width="34.396" height="44.64" viewBox="0 0 34.396 44.64">
  <g id="icon-15" transform="translate(-4.749 -4.37)">
    <path id="Path_840" data-name="Path 840" d="M16.9,57.662a10.479,10.479,0,0,1-3,.419,10.925,10.925,0,0,1-3-.42l0-3.441h6Z" transform="translate(-1.096 -9.571)" fill="#fff" stroke="#404040" stroke-linecap="round" stroke-linejoin="round" stroke-width="1"/>
    <path id="Path_841" data-name="Path 841" d="M5.8,4.88H19.856a.516.516,0,0,1,.508.54L17.816,44.369a18.04,18.04,0,0,1-5.014.645A17.943,17.943,0,0,1,7.8,44.369L5.25,5.468A.556.556,0,0,1,5.8,4.88Z" transform="translate(0 -0.002)" fill="#fff" stroke="#404040" stroke-linecap="round" stroke-linejoin="round" stroke-width="1"/>
    <rect id="Rectangle_998" data-name="Rectangle 998" width="9.479" height="3.676" rx="1.838" transform="translate(29.166 4.87)" fill="#fff" stroke="#404040" stroke-linecap="round" stroke-linejoin="round" stroke-width="1"/>
    <rect id="Rectangle_999" data-name="Rectangle 999" width="4.586" height="39.964" transform="translate(31.608 8.546)" fill="#fff" stroke="#404040" stroke-linecap="round" stroke-linejoin="round" stroke-width="1"/>
    <line id="Line_214" data-name="Line 214" x2="13.969" transform="translate(5.741 8.143)" fill="#fff" stroke="#404040" stroke-linecap="round" stroke-linejoin="round" stroke-width="1"/>
    <rect id="Rectangle_1000" data-name="Rectangle 1000" width="0.822" height="0.822" transform="translate(33.099 10.553)" fill="#404040"/>
    <rect id="Rectangle_1001" data-name="Rectangle 1001" width="0.822" height="0.822" transform="translate(33.099 12.786)" fill="#404040"/>
    <rect id="Rectangle_1002" data-name="Rectangle 1002" width="0.822" height="0.822" transform="translate(33.099 15.01)" fill="#404040"/>
    <rect id="Rectangle_1003" data-name="Rectangle 1003" width="0.822" height="0.822" transform="translate(33.099 17.243)" fill="#404040"/>
    <rect id="Rectangle_1004" data-name="Rectangle 1004" width="0.822" height="0.822" transform="translate(33.099 19.476)" fill="#404040"/>
    <rect id="Rectangle_1005" data-name="Rectangle 1005" width="0.822" height="0.822" transform="translate(33.099 21.701)" fill="#404040"/>
  </g>
</svg>
