<svg xmlns="http://www.w3.org/2000/svg" width="48.654" height="24.858" viewBox="0 0 48.654 24.858">
  <g id="panties" transform="translate(-22.85 -73.35)">
    <path id="Path_858" data-name="Path 858" d="M241.7,202.7a1.593,1.593,0,0,1-.629-1.308,1.344,1.344,0,0,1,.6-.987.7.7,0,0,0,.3-.975.6.6,0,0,0-.765-.3.853.853,0,0,0-.173.148,1.312,1.312,0,0,1-.6.382.83.83,0,0,1-.679-.111.65.65,0,0,1-.308-.444,1.651,1.651,0,0,1,.518-1.221c.234-.284.444-.555.407-.8a.822.822,0,0,0-.814-.691.559.559,0,0,0-.568.531,1.712,1.712,0,0,1-.654,1.406.96.96,0,0,1-.925-.049.806.806,0,0,0-.654-.086.491.491,0,0,0-.284.333c-.086.259.049.444.259.679a.848.848,0,0,1,.136.16A.767.767,0,0,1,237,200a.906.906,0,0,1-.333.518.917.917,0,0,1-1.332-.271,1.745,1.745,0,0,0-1.16-.765.244.244,0,0,0-.136.025c-.271.074-.345.382-.37.543-.049.407.271.58.79.827a1.92,1.92,0,0,1,.938.716c.185.382-.049.716-.284,1.036a1.7,1.7,0,0,0-.432,1.493,1.36,1.36,0,0,0,1.2,1.11,1.536,1.536,0,0,0,1.518-.666c.407-.79.864-1.221,1.369-1.283.716-.1,1.3.543,1.6.888.025.025.049.062.074.086a1.07,1.07,0,0,0,1.049.259.984.984,0,0,0,.74-.654A1.253,1.253,0,0,0,241.7,202.7Z" transform="translate(-186.26 -108.949)" fill="#c61825"/>
    <path id="Path_859" data-name="Path 859" d="M180.371,248.822q-.592-.315-.629-.7c-.037-.358.284-.642.469-.79l.037-.037a.536.536,0,0,0,.148-.518.475.475,0,0,0-.321-.37.639.639,0,0,0-.592.247.791.791,0,0,1-.666.3.658.658,0,0,1-.481-.321.348.348,0,0,0-.481-.16.309.309,0,0,0-.16.382.231.231,0,0,0,.074.086.731.731,0,0,1,.185.308.455.455,0,0,1-.062.333.327.327,0,0,1-.234.148.784.784,0,0,1-.6-.284c-.136-.123-.271-.234-.395-.21a.405.405,0,0,0-.358.395.266.266,0,0,0,.259.284c.37.049.6.16.691.345a.465.465,0,0,1-.037.469.422.422,0,0,0-.049.333.274.274,0,0,0,.16.148c.123.049.222-.012.345-.123a.326.326,0,0,1,.074-.062.424.424,0,0,1,.321-.062.454.454,0,0,1,.111.839.839.839,0,0,0-.395.555.418.418,0,0,1,.185.074c.037.012.074.012.111.025a.956.956,0,0,1,.222.062,1.137,1.137,0,0,0,.173-.284.925.925,0,0,1,.37-.456c.2-.086.358.037.518.16a.828.828,0,0,0,.74.234.667.667,0,0,0,.568-.592A.726.726,0,0,0,180.371,248.822Z" transform="translate(-135.289 -152.772)" fill="#c61825"/>
    <path id="Path_860" data-name="Path 860" d="M211.131,237.047a1.64,1.64,0,0,1,.2,1.431,1.344,1.344,0,0,1-.888.753.7.7,0,0,0-.58.839.6.6,0,0,0,.629.518,1.264,1.264,0,0,0,.21-.086,1.351,1.351,0,0,1,.691-.185.857.857,0,0,1,.617.308c.123.16,4.824-.185,4.762-.58-.062-.419.271-.666.592-.9a1.712,1.712,0,0,0,.876-1.283,1.373,1.373,0,0,0-.79-1.431,1.514,1.514,0,0,0-1.653.16,2.084,2.084,0,0,1-1.7.8c-.7-.136-1.061-.913-1.246-1.345a.733.733,0,0,0-.049-.1,1.043,1.043,0,0,0-.913-.568.991.991,0,0,0-.9.382A1.316,1.316,0,0,0,211.131,237.047Z" transform="translate(-165.142 -143.118)" fill="#c61825"/>
    <path id="Path_862" data-name="Path 862" d="M47.171,97.5a24.988,24.988,0,0,1-3.461-.023C38.416,95.722,23.5,87.421,23.5,87.421L25.334,74h43.7l1.823,13.409s-14.927,8.3-20.211,10.054a25.426,25.426,0,0,1-3.472.035" fill="none" stroke="#000" stroke-linecap="round" stroke-linejoin="round" stroke-miterlimit="10" stroke-width="1.3"/>
    <line id="Line_216" data-name="Line 216" x2="44.171" transform="translate(25.166 77.257)" fill="none" stroke="#000" stroke-linecap="round" stroke-linejoin="round" stroke-miterlimit="10" stroke-width="1.3"/>
    <path id="Path_863" data-name="Path 863" d="M27.9,190.292a29.053,29.053,0,0,1,11.856,2.566,22.384,22.384,0,0,1,8.488,7.785" transform="translate(-3.857 -103.593)" fill="none" stroke="#000" stroke-linecap="round" stroke-linejoin="round" stroke-miterlimit="10" stroke-width="1.3"/>
    <path id="Path_864" data-name="Path 864" d="M285.845,190.292a29.052,29.052,0,0,0-11.856,2.566,22.384,22.384,0,0,0-8.488,7.785" transform="translate(-215.434 -103.593)" fill="none" stroke="#000" stroke-linecap="round" stroke-linejoin="round" stroke-miterlimit="10" stroke-width="1.3"/>
  </g>
</svg>
