<svg xmlns="http://www.w3.org/2000/svg" width="16.659" height="21.112" viewBox="0 0 16.659 21.112">
  <g id="Group_1401" data-name="Group 1401" transform="translate(697.17 -1236.987)">
    <g id="Group_972" data-name="Group 972" transform="translate(-697.17 1236.987)">
      <path id="Path_128" data-name="Path 128" d="M70.246,10.643a.412.412,0,0,0,.412-.412V3.711A2.064,2.064,0,0,0,68.6,1.649H66.008A2.01,2.01,0,0,0,64.034,0H60.625a2.01,2.01,0,0,0-1.974,1.649H56.062A2.064,2.064,0,0,0,54,3.711V19.05a2.064,2.064,0,0,0,2.062,2.062H68.6a2.064,2.064,0,0,0,2.062-2.062V13.687a.412.412,0,1,0-.825,0V19.05A1.238,1.238,0,0,1,68.6,20.287H56.062a1.238,1.238,0,0,1-1.237-1.237V3.711a1.238,1.238,0,0,1,1.237-1.237h2.557V3.3H56.474a.826.826,0,0,0-.825.825V18.638a.826.826,0,0,0,.825.825H68.185a.826.826,0,0,0,.825-.825V4.123a.826.826,0,0,0-.825-.825H66.041V2.474H68.6a1.238,1.238,0,0,1,1.237,1.237V10.23A.412.412,0,0,0,70.246,10.643Zm-10.8-8.636A1.183,1.183,0,0,1,60.625.825h3.409a1.183,1.183,0,0,1,1.182,1.182V3.3H59.443Zm8.742,2.117V18.638H56.474V4.123H68.185Z" transform="translate(-54)" fill="#7e1a6a"/>
    </g>
    <g id="Group_974" data-name="Group 974" transform="translate(-692.775 1242.56)">
      <path id="Path_129" data-name="Path 129" d="M142.233,130.1a1.367,1.367,0,1,0,1.367,1.367A1.368,1.368,0,0,0,142.233,130.1Zm0,2.05a.683.683,0,1,1,.683-.683A.684.684,0,0,1,142.233,132.152Z" transform="translate(-140.866 -130.102)" fill="#7e1a6a"/>
    </g>
    <g id="Group_976" data-name="Group 976" transform="translate(-687.873 1243.586)">
      <path id="Path_130" data-name="Path 130" d="M286.918,160.1h-2.244a.342.342,0,1,0,0,.683h2.244a.342.342,0,1,0,0-.683Z" transform="translate(-284.333 -160.102)" fill="#7e1a6a"/>
    </g>
    <g id="Group_978" data-name="Group 978" transform="translate(-689.178 1243.585)">
      <path id="Path_131" data-name="Path 131" d="M246.713,160.2a.342.342,0,1,0,.1.242A.344.344,0,0,0,246.713,160.2Z" transform="translate(-246.13 -160.1)" fill="#7e1a6a"/>
    </g>
    <g id="Group_980" data-name="Group 980" transform="translate(-692.775 1246.25)">
      <path id="Path_132" data-name="Path 132" d="M142.233,238.1a1.367,1.367,0,1,0,1.367,1.367A1.368,1.368,0,0,0,142.233,238.1Zm0,2.05a.683.683,0,1,1,.683-.683A.684.684,0,0,1,142.233,240.152Z" transform="translate(-140.866 -238.102)" fill="#7e1a6a"/>
    </g>
    <g id="Group_982" data-name="Group 982" transform="translate(-689.178 1247.275)">
      <path id="Path_133" data-name="Path 133" d="M250.018,268.1h-3.549a.342.342,0,1,0,0,.683h3.549a.342.342,0,1,0,0-.683Z" transform="translate(-246.127 -268.102)" fill="#7e1a6a"/>
    </g>
    <g id="Group_984" data-name="Group 984" transform="translate(-692.775 1249.94)">
      <path id="Path_134" data-name="Path 134" d="M142.233,346.1a1.367,1.367,0,1,0,1.367,1.367A1.368,1.368,0,0,0,142.233,346.1Zm0,2.05a.683.683,0,1,1,.683-.683A.684.684,0,0,1,142.233,348.152Z" transform="translate(-140.866 -346.102)" fill="#7e1a6a"/>
    </g>
    <g id="Group_986" data-name="Group 986" transform="translate(-689.178 1250.966)">
      <path id="Path_135" data-name="Path 135" d="M250.018,376.1h-3.549a.342.342,0,1,0,0,.683h3.549a.342.342,0,1,0,0-.683Z" transform="translate(-246.127 -376.102)" fill="#7e1a6a"/>
    </g>
    <g id="Group_988" data-name="Group 988" transform="translate(-689.917 1239.482)">
      <path id="Path_136" data-name="Path 136" d="M226.311,40h-1.469a.342.342,0,0,0,0,.683h1.469a.342.342,0,0,0,0-.683Z" transform="translate(-224.5 -40)" fill="#7e1a6a"/>
    </g>
  </g>
</svg>
