<svg viewBox="0 0 14 17" fill="none" xmlns="http://www.w3.org/2000/svg">
<path d="M12.6009 1.67397H1.92794V14.62L7.26493 9.50198L8.19193 10.388L12.6019 14.62L12.6009 1.67397ZM12.7259 0.339975C12.8837 0.339361 13.0399 0.371012 13.1849 0.432977C13.406 0.51716 13.5966 0.665952 13.7319 0.859979C13.8648 1.04897 13.9348 1.27498 13.9319 1.50597V14.942C13.9348 15.173 13.8648 15.399 13.7319 15.588C13.6182 15.7482 13.4672 15.8784 13.2919 15.9672C13.1167 16.0561 12.9224 16.101 12.7259 16.098C12.4052 16.103 12.0951 15.9833 11.8609 15.764L7.26093 11.344L2.66092 15.764C2.42821 15.9866 2.118 16.11 1.79593 16.108C1.63819 16.1086 1.482 16.0769 1.33694 16.015C1.11586 15.9308 0.925262 15.782 0.789938 15.588C0.657092 15.399 0.587106 15.173 0.589926 14.942V1.50597C0.587106 1.27498 0.657092 1.04897 0.789938 0.859979C0.925262 0.665952 1.11586 0.51716 1.33694 0.432977C1.482 0.371012 1.63819 0.339361 1.79593 0.339975H12.7189H12.7259Z" fill="#911D7A"/>
</svg>
