<svg xmlns="http://www.w3.org/2000/svg" width="222.502" height="269.665" viewBox="0 0 222.502 269.665">
  <g id="Group_1447" data-name="Group 1447" transform="translate(-318.694 606.494)">
    <g id="Layer_1" data-name="Layer 1" transform="translate(329.442 -594.533)">
      <path id="Path_679" data-name="Path 679" d="M499.13-569.9c17.467,10.952,34.519,26.339,38.262,44.5s-5.961,39.093-19.408,53.372-30.776,21.9-51.154,35.212c-20.24,13.308-43.391,32.3-67.235,32.439-23.983.277-48.52-18.16-61.413-42.42-13.031-24.26-14.417-54.343-8.04-81.93,6.238-27.449,20.378-52.263,40.9-62.66s47.411-6.377,69.869-1.109C463.5-587.229,481.524-580.713,499.13-569.9Z" transform="translate(-326.447 597.866)" fill="#d54e2d"/>
    </g>
    <g id="Girl_4" transform="translate(318.694 -606.494)">
      <g id="Group_1446" data-name="Group 1446">
        <g id="Group_1444" data-name="Group 1444" transform="translate(0 152.915)">
          <path id="Path_680" data-name="Path 680" d="M351.472-480.275l-8.948-11.458-22.986-2.9a23.774,23.774,0,0,0,6.506,4.577,24.765,24.765,0,0,0,8.179,2.3l12.4,16.965Q349.048-475.535,351.472-480.275Z" transform="translate(-318.368 496.789)" fill="#a56c39"/>
          <path id="Path_681" data-name="Path 681" d="M344.371-488.664c.277-.513-.058-1.084-.3-1.553a4.879,4.879,0,0,0-1.974-1.945L322.269-496c-1.487-.391-2.842-.176-3.355.552-.621.882.208,2.213.779,3.1a12.245,12.245,0,0,0,5.271,4.295c4.543,1.988,9.289,1.525,9.344,1.043.049-.444-3.9-.787-8.626-3.742-1.164-.729-2.809-1.756-2.635-2.147l1.5.4,17.968,4.787C342.545-487.726,344-487.978,344.371-488.664Z" transform="translate(-318.694 496.189)" fill="#23130e"/>
        </g>
        <g id="Group_1445" data-name="Group 1445" transform="translate(139.228 220.964)">
          <path id="Path_682" data-name="Path 682" d="M419.126-442.7q1.655,12.125,3.308,24.252a51.613,51.613,0,0,1,11.086,7.577,51.642,51.642,0,0,1,8.971,10.516,64.693,64.693,0,0,0-4.467-11.126,64.413,64.413,0,0,0-3.81-6.456q-1.886-14.581-3.773-29.163Z" transform="translate(-419.126 447.102)" fill="#a56c39"/>
          <path id="Path_683" data-name="Path 683" d="M421.9-428.842c-.639.4-.681,1.223-.75,1.877a5.584,5.584,0,0,0,.713,3.265c5.961,5.186,10.627,11.649,16.588,16.835,1.271,1.28,2.82,1.82,3.847,1.314,1.246-.613,1.3-2.548,1.314-3.847.017-1.386-.189-4-2.515-7.733a25.51,25.51,0,0,0-7.656-7.77,24.545,24.545,0,0,0,2.142,5.07,20.563,20.563,0,0,1,2.048,3.958,13.109,13.109,0,0,1,.654,3.155c-1.711-2.28-3.561-4.623-5.562-7-2.789-3.322-5.562-6.351-8.251-9.1C424.43-428.828,422.756-429.383,421.9-428.842Z" transform="translate(-418.354 454.064)" fill="#23130e"/>
        </g>
        <path id="Path_684" data-name="Path 684" d="M402.147-531.543c-3.9,4.377-7.383,17.955-14.19,44.934-3.31,13.124-4.363,18.189-9.46,21.758-10.191,7.137-27.841,2.188-28.851,1.892a43,43,0,0,1-5.2-1.892q-3.073,5.44-6.148,10.878a80.747,80.747,0,0,0,13.243,9.46c8.314,4.751,20.205,11.545,32.637,9.46,12.111-2.031,19.371-11.591,26.014-20.338,12.6-16.6,16.357-34.555,17.5-46.353,1.3,4.241,3.328,10.5,6.15,17.973,4.687,12.409,5.718,12.664,8.04,19.393,1.372,3.977,2.828,9.151,5.677,37.366.853,8.454,1.478,15.47,1.891,20.34l13.717,1.418a202.181,202.181,0,0,0,5.2-50.609A205.115,205.115,0,0,0,448.5-538.638C419.846-543.8,407.822-537.915,402.147-531.543Z" transform="translate(-311.123 631.944)" fill="#9ab0ad"/>
        <path id="Path_685" data-name="Path 685" d="M367.038-543.453a11.106,11.106,0,0,1-4.949,5.63c-1.8.916-2.45.543-5.522,1.605-2.774.959-5.319,1.989-5.982,4.134a3.288,3.288,0,0,0,.545,3.164c1.317,1.324,3.923.341,4.051.29,1.872-.732,2.572-2.3,2.992-2.067.362.2.3,1.616-.462,2.53-.932,1.11-2.511,1.005-2.622,1.842a.7.7,0,0,0,.183.581c.672.643,2.986-.783,3.629-1.18a18.152,18.152,0,0,0,4.187-3.685,22.033,22.033,0,0,0,2.1-2.727c1.364-2.1,1.1-2.5,1.959-3.563,1.845-2.29,4.322-2.009,4.486-3.1C371.731-540.646,371.006-541.7,367.038-543.453Z" transform="translate(-306.441 630.847)" fill="#996539"/>
        <path id="Path_686" data-name="Path 686" d="M440.886-587.848l-4.034-.495q.8-3.177,1.6-6.358a6.9,6.9,0,0,1-.114-5.747,6.917,6.917,0,0,1,2.817-2.931c.263-.162,1.451-.887,1.713-.609a.35.35,0,0,1,.032.3c-.187.958-.943,1.307-1.137,2.018a1.563,1.563,0,0,0,.609,1.712c.9.352,3.033-1.514,2.818-2.931-.114-.742-.823-1.052-1.171-2.461-.128-.516-.2-.793-.047-.965.506-.584,3.383.23,4.644,2.208,1.4,2.2.4,4.943.114,5.748-.7,1.934-1.708,2.627-3.922,5.253A56.214,56.214,0,0,0,440.886-587.848Z" transform="translate(-273.051 606.494)" fill="#996539"/>
        <path id="Path_687" data-name="Path 687" d="M359.341-520.6c14.549-25.468,30.236-42.179,38.794-44.062a128.671,128.671,0,0,1,12.931-1.916,79.876,79.876,0,0,1,10.059-.48c8.4.245,12.933,2.459,15.805,2.874,5.845.844,15.159-4.28,30.173-31.61q1.915,1.917,3.832,3.832a58,58,0,0,1-.478,18.2C469-565.981,466.988-555.241,458-549.339c-2.168,1.425-7.372,4.3-15.805,3.832,1.07,4.982,2.046,10.256,2.874,15.805a252.432,252.432,0,0,1,2.483,25.463c-7.514-6.255-17.947-12.625-29.3-11.095-14.95,2.014-24.228,16.739-28.441,13.816-2.989-2.075-.74-11.172.908-17.837,2.244-9.082,5.4-14.237,4.152-15.108-1.169-.817-4.9,3.04-9.667,7.156a125.869,125.869,0,0,1-19.637,13.889Z" transform="translate(-302.992 610.627)" fill="#fff3e5"/>
        <path id="Path_688" data-name="Path 688" d="M419.2-595.366c-4.383-1.865-9.514,1.985-11.882,3.761-4.78,3.586-4.769,6.443-7.589,6.825-4.246.574-5.723-5.67-11.154-6.617-5.448-.948-12.126,4.115-14.745,10.4a17.283,17.283,0,0,0,3.4,18.338c4.9,5.082,11.7,5.113,12.477,5.1,10.67-.118,13.228-10.393,23.062-9.83,5.616.32,9,3.913,11.91,1.89,2.646-1.841,2.3-6.608,2.268-6.994-.388-4.946-4.317-6.718-3.714-11.28.225-1.7.794-1.643.879-3.276C424.278-590.208,422.294-594.051,419.2-595.366Z" transform="translate(-297.89 610.601)"/>
        <path id="Path_689" data-name="Path 689" d="M405.8-589.9c-.738.1-2.987.419-3.97,2.079-1.084,1.834.159,3.991-.755,4.536-.828.495-2.131-1.1-3.025-.567-.719.431-.7,1.958-.378,3.025.506,1.693,1.6,1.7,2.458,3.213,1.611,2.842-.086,6.588-.189,6.805-1.024,2.185-2.272,2.24-2.269,3.4.01,2.915,7.863,6.3,9.83,4.347,1.033-1.024.484-3.557.19-4.914-.568-2.616-1.679-3.578-1.134-4.537.64-1.128,2.465-.3,3.969-1.512.64-.517,1.174-1.365,1.512-5.671.378-4.815.568-7.221-.567-8.506C409.545-590.373,406.1-589.938,405.8-589.9Z" transform="translate(-288.269 612.882)" fill="#96602f"/>
      </g>
    </g>
  </g>
</svg>
